<?xml version="1.0" encoding="UTF-8" standalone="no"?>
<svg
   xmlns:dc="http://purl.org/dc/elements/1.1/"
   xmlns:cc="http://creativecommons.org/ns#"
   xmlns:rdf="http://www.w3.org/1999/02/22-rdf-syntax-ns#"
   xmlns:svg="http://www.w3.org/2000/svg"
   xmlns="http://www.w3.org/2000/svg"
   xmlns:xlink="http://www.w3.org/1999/xlink"
   xmlns:sodipodi="http://sodipodi.sourceforge.net/DTD/sodipodi-0.dtd"
   xmlns:inkscape="http://www.inkscape.org/namespaces/inkscape"
   id="8fc77738-ee79-4216-bfe1-e1f5c470859a"
   data-name="Layer 1"
   width="1070"
   height="783.53003"
   viewBox="0 0 1070 783.53"
   version="1.1"
   sodipodi:docname="undraw_online_shopping_ga73final.svg"
   inkscape:version="0.92.4 (5da689c313, 2019-01-14)">
  <metadata
     id="metadata491">
    <rdf:RDF>
      <cc:Work
         rdf:about="">
        <dc:format>image/svg+xml</dc:format>
        <dc:type
           rdf:resource="http://purl.org/dc/dcmitype/StillImage" />
        <dc:title>online shopping</dc:title>
      </cc:Work>
    </rdf:RDF>
  </metadata>
  <sodipodi:namedview
     pagecolor="#ffffff"
     bordercolor="#666666"
     borderopacity="1"
     objecttolerance="10"
     gridtolerance="10"
     guidetolerance="10"
     inkscape:pageopacity="0"
     inkscape:pageshadow="2"
     inkscape:window-width="1920"
     inkscape:window-height="1017"
     id="namedview489"
     showgrid="false"
     scale-x="1"
     inkscape:zoom="0.85255188"
     inkscape:cx="507.78"
     inkscape:cy="344.84705"
     inkscape:window-x="-8"
     inkscape:window-y="-8"
     inkscape:window-maximized="1"
     inkscape:current-layer="8fc77738-ee79-4216-bfe1-e1f5c470859a"
     showguides="true"
     inkscape:guide-bbox="true" />
  <defs
     id="defs18">
    <linearGradient
       id="55e18adb-5a4b-48dc-a3c1-f250c98f7014"
       x1="535.53998"
       y1="705.46002"
       x2="535.53998"
       gradientUnits="userSpaceOnUse">
      <stop
         offset="0"
         stop-color="gray"
         stop-opacity="0.25"
         id="stop10" />
      <stop
         offset="0.54"
         stop-color="gray"
         stop-opacity="0.12"
         id="stop12" />
      <stop
         offset="1"
         stop-color="gray"
         stop-opacity="0.1"
         id="stop14" />
    </linearGradient>
    <linearGradient
       id="dcaa3d52-8271-46b6-bbc0-03906cb73c47"
       x1="237.19"
       y1="818.89001"
       x2="237.19"
       y2="359.57999"
       xlink:href="#55e18adb-5a4b-48dc-a3c1-f250c98f7014"
       gradientTransform="translate(-92.22,-58.23)" />
    <linearGradient
       inkscape:collect="always"
       xlink:href="#55e18adb-5a4b-48dc-a3c1-f250c98f7014"
       id="linearGradient495"
       gradientUnits="userSpaceOnUse"
       x1="535.53998"
       y1="705.46002"
       x2="535.53998" />
  </defs>
  <title
     id="title20">online shopping</title>
  <path
     d="m 637.08,126.32 c -42.28,26.74 -97.12,25 -145.17,11.1 -48.05,-13.9 -92.2,-38.69 -139,-56.3 A 490.89,490.89 0 0 0 230.78,52.36 C 171.11,46.19 104.48,53.7 62.9,96.93 c -46.3,48.15 -42.75,135 7.33,179.18 25.47,22.48 58.83,33.51 87.92,51.06 29.09,17.55 56,46.7 53.53,80.58 -2.29,31.36 -28.95,55.43 -56.54,70.53 -21.33,11.67 -47.6,24.41 -50.17,48.58 -2.48,23.39 19.6,41.72 40.69,52.14 68.8,34 153.56,33.67 222.09,-0.86 24.45,-12.32 46.93,-28.7 72.57,-38.3 67.33,-25.21 141.51,0.17 212.8,9.45 a 469.33,469.33 0 0 0 181,-11.91 c 35.3,-9.42 70.74,-23.82 95.54,-50.65 17.88,-19.35 29,-43.83 39.49,-68 q 16.73,-38.68 32.16,-77.9 c 6.18,-15.7 12.26,-31.7 13.85,-48.5 2.89,-30.43 -9.28,-60.51 -25.87,-86.2 C 949.89,145.14 883.58,102.26 811.78,91.37 739.98,80.48 663.99,101.77 608.29,148.3"
     id="path22"
     inkscape:connector-curvature="0"
     style="opacity:0.1;fill:#6c63ff" />
  <ellipse
     cx="135.74001"
     cy="756.98999"
     rx="135.74001"
     ry="26.540001"
     id="ellipse24"
     style="opacity:0.1;fill:#6c63ff" />
  <ellipse
     cx="538.98999"
     cy="701.56"
     rx="284.54001"
     ry="26.540001"
     id="ellipse26"
     style="opacity:0.1;fill:#6c63ff" />
  <path
     d="m 732.13,512.6 c 0,0 39.89,-70.66 100,-91 25.21,-8.55 47.22,-24.62 62.27,-46.58 a 207.22,207.22 0 0 0 18.38,-33.07"
     stroke-miterlimit="10"
     id="path28"
     inkscape:connector-curvature="0"
     style="fill:none;stroke:#535461;stroke-width:2;stroke-miterlimit:10" />
  <path
     d="m 950.51,328.89 c -6.85,6.64 -38.73,13.51 -38.73,13.51 0,0 7.83,-31.65 14.67,-38.3 a 17.273011,17.273011 0 0 1 24.06,24.79 z"
     id="path30"
     inkscape:connector-curvature="0"
     style="fill:#6c63ff" />
  <path
     d="m 932.48,386.18 c -9.36,1.85 -39.85,-9.71 -39.85,-9.71 0,0 23.77,-22.32 33.12,-24.18 a 17.28,17.28 0 1 1 6.73,33.89 z"
     id="path32"
     inkscape:connector-curvature="0"
     style="fill:#6c63ff" />
  <path
     d="m 866.78,448.17 c -9,-3.12 -29.5,-28.49 -29.5,-28.49 0,0 31.79,-7.28 40.8,-4.16 a 17.28,17.28 0 1 1 -11.3,32.65 z"
     id="path34"
     inkscape:connector-curvature="0"
     style="fill:#6c63ff" />
  <path
     d="m 806.57,483.88 c -9.41,-1.55 -33.89,-23.11 -33.89,-23.11 0,0 30.1,-12.54 39.51,-11 a 17.270139,17.270139 0 1 1 -5.62,34.08 z"
     id="path36"
     inkscape:connector-curvature="0"
     style="fill:#6c63ff" />
  <path
     d="m 866.04,351.77 c 0,9.54 17.26,37.21 17.26,37.21 0,0 17.28,-27.66 17.29,-37.2 a 17.28,17.28 0 0 0 -34.55,0 z"
     id="path38"
     inkscape:connector-curvature="0"
     style="fill:#6c63ff" />
  <path
     d="m 796.12,394.4 c 2.85,9.1 27.59,30.34 27.59,30.34 0,0 8.22,-31.56 5.37,-40.66 a 17.288019,17.288019 0 1 0 -33,10.32 z"
     id="path40"
     inkscape:connector-curvature="0"
     style="fill:#6c63ff" />
  <path
     d="m 733.84,445.19 c 1.27,9.46 22.08,34.57 22.08,34.57 0,0 13.43,-29.71 12.16,-39.17 a 17.273807,17.273807 0 1 0 -34.24,4.6 z"
     id="path42"
     inkscape:connector-curvature="0"
     style="fill:#6c63ff" />
  <path
     d="m 950.51,328.89 c -6.85,6.64 -38.73,13.51 -38.73,13.51 0,0 7.83,-31.65 14.67,-38.3 a 17.273011,17.273011 0 0 1 24.06,24.79 z"
     id="path44"
     inkscape:connector-curvature="0"
     style="opacity:0.25" />
  <path
     d="m 932.48,386.18 c -9.36,1.85 -39.85,-9.71 -39.85,-9.71 0,0 23.77,-22.32 33.12,-24.18 a 17.28,17.28 0 1 1 6.73,33.89 z"
     id="path46"
     inkscape:connector-curvature="0"
     style="opacity:0.25" />
  <path
     d="m 866.78,448.17 c -9,-3.12 -29.5,-28.49 -29.5,-28.49 0,0 31.79,-7.28 40.8,-4.16 a 17.28,17.28 0 1 1 -11.3,32.65 z"
     id="path48"
     inkscape:connector-curvature="0"
     style="opacity:0.25" />
  <path
     d="m 806.57,483.88 c -9.41,-1.55 -33.89,-23.11 -33.89,-23.11 0,0 30.1,-12.54 39.51,-11 a 17.270139,17.270139 0 1 1 -5.62,34.08 z"
     id="path50"
     inkscape:connector-curvature="0"
     style="opacity:0.25" />
  <path
     d="m 866.04,351.77 c 0,9.54 17.26,37.21 17.26,37.21 0,0 17.28,-27.66 17.29,-37.2 a 17.28,17.28 0 0 0 -34.55,0 z"
     id="path52"
     inkscape:connector-curvature="0"
     style="opacity:0.25" />
  <path
     d="m 796.12,394.4 c 2.85,9.1 27.59,30.34 27.59,30.34 0,0 8.22,-31.56 5.37,-40.66 a 17.288019,17.288019 0 1 0 -33,10.32 z"
     id="path54"
     inkscape:connector-curvature="0"
     style="opacity:0.25" />
  <path
     d="m 733.84,445.19 c 1.27,9.46 22.08,34.57 22.08,34.57 0,0 13.43,-29.71 12.16,-39.17 a 17.273807,17.273807 0 1 0 -34.24,4.6 z"
     id="path56"
     inkscape:connector-curvature="0"
     style="opacity:0.25" />
  <path
     d="m 734.43,511.19 c 0,0 7.83,-80.76 54.49,-123.71 a 123,123 0 0 0 38.06,-67.82 207,207 0 0 0 3.4,-37.66"
     stroke-miterlimit="10"
     id="path58"
     inkscape:connector-curvature="0"
     style="fill:none;stroke:#535461;stroke-width:2;stroke-miterlimit:10" />
  <path
     d="m 859.63,254.77 c -3.57,8.85 -29.93,28 -29.93,28 0,0 -5.68,-32.11 -2.11,-41 a 17.27,17.27 0 0 1 32,12.91 z"
     id="path60"
     inkscape:connector-curvature="0"
     style="fill:#6c63ff" />
  <path
     d="m 866.35,314.43 c -7.8,5.49 -40.36,7.28 -40.36,7.28 0,0 12.69,-30 20.49,-35.53 a 17.27,17.27 0 0 1 19.87,28.25 z"
     id="path62"
     inkscape:connector-curvature="0"
     style="fill:#6c63ff" />
  <path
     d="m 831.44,397.71 c -9.5,0.8 -38.51,-14.09 -38.51,-14.09 0,0 26.11,-19.53 35.62,-20.33 a 17.270557,17.270557 0 1 1 2.89,34.42 z"
     id="path64"
     inkscape:connector-curvature="0"
     style="fill:#6c63ff" />
  <path
     d="m 790.84,454.77 c -9.23,2.39 -40.34,-7.38 -40.34,-7.38 0,0 22.44,-23.67 31.67,-26.06 a 17.272829,17.272829 0 0 1 8.67,33.44 z"
     id="path66"
     inkscape:connector-curvature="0"
     style="fill:#6c63ff" />
  <path
     d="m 791.66,309.87 c 3.87,8.72 30.86,27 30.86,27 0,0 4.59,-32.28 0.73,-41 a 17.276632,17.276632 0 0 0 -31.59,14 z"
     id="path68"
     inkscape:connector-curvature="0"
     style="fill:#6c63ff" />
  <path
     d="m 745.02,377.21 c 6.3,7.16 37.53,16.55 37.53,16.55 0,0 -5.28,-32.18 -11.57,-39.35 a 17.29046,17.29046 0 0 0 -26,22.8 z"
     id="path70"
     inkscape:connector-curvature="0"
     style="fill:#6c63ff" />
  <path
     d="m 708.67,448.88 c 5,8.13 34.19,22.66 34.19,22.66 0,0 0.24,-32.61 -4.75,-40.74 a 17.274258,17.274258 0 1 0 -29.44,18.08 z"
     id="path72"
     inkscape:connector-curvature="0"
     style="fill:#6c63ff" />
  <polygon
     points="281.84,0 281.84,27.38 281.84,705.46 789.24,705.46 789.24,27.38 789.24,0 "
     id="polygon74"
     style="fill:url(#linearGradient495)" />
  <rect
     x="286.29001"
     y="6.1900001"
     width="498.5"
     height="26.889999"
     id="rect76"
     style="fill:#f6f7f9" />
  <g
     id="g80"
     style="opacity:0.2">
    <rect
       x="286.29001"
       y="6.1900001"
       width="498.5"
       height="26.889999"
       id="rect78"
       style="fill:#6c63ff" />
  </g>
  <rect
     x="286.29001"
     y="33.080002"
     width="498.5"
     height="666.19"
     id="rect82"
     style="fill:#f6f7f9" />
  <circle
     cx="299.39999"
     cy="19.629999"
     r="4.5599999"
     id="circle84"
     style="fill:#f6f7f9" />
  <circle
     cx="311.76001"
     cy="19.629999"
     r="4.5599999"
     id="circle86"
     style="fill:#f6f7f9" />
  <circle
     cx="324.12"
     cy="19.629999"
     r="4.5599999"
     id="circle88"
     style="fill:#f6f7f9" />
  <g
     id="g92"
     style="opacity:0.2">
    <rect
       x="375.26001"
       y="74.150002"
       width="320.54999"
       height="12.55"
       id="rect90"
       style="fill:#6c63ff" />
  </g>
  <rect
     x="653.21997"
     y="74.150002"
     width="42.59"
     height="12.55"
     id="rect94"
     style="fill:#6c63ff" />
  <g
     id="g98"
     style="opacity:0.2">
    <rect
       x="329.32001"
       y="330.62"
       width="201.72"
       height="144.49001"
       id="rect96"
       style="opacity:0.2;fill:#6c63ff" />
  </g>
  <g
     id="g102"
     style="opacity:0.2">
    <rect
       x="329.32001"
       y="143.19"
       width="201.72"
       height="144.49001"
       id="rect100"
       style="opacity:0.2;fill:#6c63ff" />
  </g>
  <g
     id="g106"
     style="opacity:0.2">
    <rect
       x="329.32001"
       y="515.60999"
       width="201.72"
       height="144.49001"
       id="rect104"
       style="opacity:0.2;fill:#6c63ff" />
  </g>
  <g
     id="g110"
     style="opacity:0.2">
    <rect
       x="540.03998"
       y="330.62"
       width="201.72"
       height="144.49001"
       id="rect108"
       style="opacity:0.2;fill:#6c63ff" />
  </g>
  <g
     id="g114"
     style="opacity:0.2">
    <rect
       x="540.03998"
       y="143.19"
       width="201.72"
       height="144.49001"
       id="rect112"
       style="opacity:0.2;fill:#6c63ff" />
  </g>
  <g
     id="g118"
     style="opacity:0.2">
    <rect
       x="540.03998"
       y="515.60999"
       width="201.72"
       height="144.49001"
       id="rect116"
       style="opacity:0.2;fill:#6c63ff" />
  </g>
  <path
     d="m 931.57,634.5 c 0,0 7.14,9.33 -3.29,23.41 -10.43,14.08 -19,26 -15.55,34.76 0,0 15.73,-26.16 28.54,-26.52 12.81,-0.36 4.39,-15.92 -9.7,-31.65 z"
     id="path120"
     inkscape:connector-curvature="0"
     style="fill:#3acc6c" />
  <path
     d="m 931.57,634.5 a 11.49,11.49 0 0 1 1.46,2.92 c 12.5,14.68 19.15,28.38 7.14,28.73 -11.18,0.32 -24.61,20.32 -27.82,25.37 a 11.06,11.06 0 0 0 0.38,1.15 c 0,0 15.73,-26.16 28.54,-26.52 12.81,-0.36 4.39,-15.92 -9.7,-31.65 z"
     id="path122"
     inkscape:connector-curvature="0"
     style="opacity:0.1" />
  <path
     d="m 944.84,646.39 c 0,3.28 -0.37,5.94 -0.82,5.94 -0.45,0 -0.83,-2.66 -0.83,-5.94 0,-3.28 0.46,-1.74 0.92,-1.74 0.46,0 0.73,-1.55 0.73,1.74 z"
     id="path124"
     inkscape:connector-curvature="0"
     style="fill:#ffd037" />
  <path
     d="m 949.39,650.31 c -2.88,1.57 -5.4,2.52 -5.61,2.12 -0.21,-0.4 1.94,-2 4.82,-3.57 2.88,-1.57 1.75,-0.42 2,0 0.25,0.42 1.67,-0.09 -1.21,1.45 z"
     id="path126"
     inkscape:connector-curvature="0"
     style="fill:#ffd037" />
  <path
     d="m 893.89,634.5 c 0,0 -7.14,9.33 3.29,23.41 10.43,14.08 19,26 15.55,34.76 0,0 -15.73,-26.16 -28.54,-26.52 -12.81,-0.36 -4.41,-15.92 9.7,-31.65 z"
     id="path128"
     inkscape:connector-curvature="0"
     style="fill:#3acc6c" />
  <path
     d="m 893.89,634.5 a 11.49,11.49 0 0 0 -1.46,2.92 c -12.5,14.68 -19.15,28.38 -7.14,28.73 11.19,0.32 24.61,20.32 27.82,25.37 a 9.11,9.11 0 0 1 -0.38,1.15 c 0,0 -15.73,-26.16 -28.54,-26.52 -12.81,-0.36 -4.41,-15.92 9.7,-31.65 z"
     id="path130"
     inkscape:connector-curvature="0"
     style="opacity:0.1" />
  <path
     d="m 880.62,646.39 c 0,3.28 0.37,5.94 0.83,5.94 0.46,0 0.82,-2.66 0.82,-5.94 0,-3.28 -0.46,-1.74 -0.91,-1.74 -0.45,0 -0.74,-1.55 -0.74,1.74 z"
     id="path132"
     inkscape:connector-curvature="0"
     style="fill:#ffd037" />
  <path
     d="m 876.07,650.31 c 2.89,1.57 5.4,2.52 5.62,2.12 0.22,-0.4 -1.95,-2 -4.83,-3.57 -2.88,-1.57 -1.75,-0.42 -2,0 -0.25,0.42 -1.67,-0.09 1.21,1.45 z"
     id="path134"
     inkscape:connector-curvature="0"
     style="fill:#ffd037" />
  <ellipse
     cx="912.72998"
     cy="752.59998"
     rx="74.599998"
     ry="11.45"
     id="ellipse136"
     style="opacity:0.1;fill:#6c63ff" />
  <path
     d="m 951.13,680.1 -0.36,2.91 -0.5,4.12 -0.21,1.71 -0.5,4.12 -0.22,1.72 -0.5,4.11 -5.71,46.8 c -0.51,4.18 -7.33,7.43 -15.57,7.43 H 897.9 c -8.24,0 -15,-3.25 -15.56,-7.43 l -5.72,-46.82 -0.5,-4.11 -0.21,-1.72 -0.51,-4.12 -0.21,-1.71 -0.5,-4.12 -0.36,-2.91 c -0.28,-2.31 3.45,-4.31 8.07,-4.31 h 60.67 c 4.65,0 8.35,2 8.06,4.33 z"
     id="path138"
     inkscape:connector-curvature="0"
     style="fill:#65617d" />
  <polygon
     points="875.19,687.12 874.69,683.01 950.77,683.01 950.27,687.12 "
     id="polygon140"
     style="fill:#9d9cb5" />
  <polygon
     points="875.91,692.96 875.4,688.84 950.06,688.84 949.56,692.96 "
     id="polygon142"
     style="fill:#9d9cb5" />
  <polygon
     points="876.62,698.79 876.12,694.67 949.34,694.67 948.84,698.79 "
     id="polygon144"
     style="fill:#9d9cb5" />
  <path
     d="m 591.61,171.11 c 0,0 -1.83,-4.57 10.51,-3.43 12.34,1.14 47.77,5.08 63.09,1.63 15.32,-3.45 24.45,-4.55 23.54,0 -0.91,4.55 -26.51,14.83 -26.51,14.83 l -33.15,3.43 -24.45,-3.89 -13.13,-7.77 z"
     id="path146"
     inkscape:connector-curvature="0"
     style="fill:#6c63ff" />
  <path
     d="m 688.78,169.31 c -0.92,4.55 -26.51,14.83 -26.51,14.83 l -33.15,3.43 -24.45,-3.88 -13.12,-7.77 0.09,-4.8 a 2,2 0 0 1 0.7,-2.21 c 1.13,-1 3.77,-1.78 9.81,-1.22 12.35,1.14 47.77,5.07 63.09,1.62 12.48,-2.81 20.86,-4.06 23,-2 a 2,2 0 0 1 0.54,2 z"
     id="path148"
     inkscape:connector-curvature="0"
     style="opacity:0.1" />
  <path
     d="m 708.48,238.54 a 143.09,143.09 0 0 0 -58.82,26.05 10.91,10.91 0 0 0 -4.69,-5.57 16.47,16.47 0 0 0 -4.76,-2 c -1.53,-0.39 -3,0.54 -4.35,1.88 a 24.63,24.63 0 0 0 -3.87,5.73 c -23.31,-16 -58.67,-26.21 -58.67,-26.21 v -3.2 c 0,-0.63 0.11,-1.39 0.23,-2.25 0.12,-0.86 0.27,-1.62 0.46,-2.55 3,-15.26 14.86,-50.13 14.86,-50.13 h 3.67 9.74 l 26,5.4 29.25,-1.79 29.46,-6.13 3.82,-0.8 c 6.37,5 13.6,40 16.44,54.9 0.36,1.89 0.64,3.45 0.85,4.6 0.25,1.3 0.38,2.07 0.38,2.07 z"
     id="path150"
     inkscape:connector-curvature="0"
     style="fill:#6c63ff" />
  <path
     d="m 578.16,231.93 c 0.77,-14.65 12.41,-46.4 14.38,-51.67 h -3.67 c 0,0 -12.56,37 -15.11,51.44 a 0.36,0.36 0 0 0 0,0.11 c -0.07,0.39 -0.14,0.77 -0.19,1.13 -0.12,0.86 -0.2,1.62 -0.23,2.25 v 3.2 c 0,0 35.36,10.22 58.67,26.21 a 24.63,24.63 0 0 1 3.87,-5.73 c -8.91,-8.1 -42.7,-21.3 -57.72,-26.94 z"
     id="path152"
     inkscape:connector-curvature="0"
     style="fill:#6c63ff" />
  <path
     d="m 708.1,236.43 c -0.09,-0.51 -0.2,-1.1 -0.32,-1.75 -0.15,-0.84 -0.33,-1.79 -0.53,-2.85 v 0 c -2.84,-14.92 -10.07,-49.93 -16.44,-54.9 l -3.82,0.8 c 2.32,6.23 17.27,46.91 16,54.85 -25,5 -50.34,21.25 -58,26.44 a 10.91,10.91 0 0 1 4.69,5.57 143.09,143.09 0 0 1 58.82,-26.05 c 0,0 -0.15,-0.77 -0.4,-2.11 z"
     id="path154"
     inkscape:connector-curvature="0"
     style="fill:#6c63ff" />
  <path
     d="m 579.08,231.01 c 0.76,-14.65 12.41,-46.4 14.38,-51.66 h -3.68 c 0,0 -12.56,37 -15.11,51.43 0,0 0,0.08 0,0.11 q -0.11,0.6 -0.18,1.14 c -0.12,0.86 -0.2,1.62 -0.23,2.25 v 3.2 c 0,0 35.35,10.21 58.67,26.21 a 24.21,24.21 0 0 1 3.86,-5.73 c -8.91,-8.08 -42.69,-21.31 -57.71,-26.95 z"
     id="path156"
     inkscape:connector-curvature="0"
     style="opacity:0.1" />
  <path
     d="m 578.16,231.93 c 0.77,-14.65 12.41,-46.4 14.38,-51.67 h -3.67 c 0,0 -12.56,37 -15.11,51.44 a 0.36,0.36 0 0 0 0,0.11 c -0.07,0.39 -0.14,0.77 -0.19,1.13 -0.12,0.86 -0.2,1.62 -0.23,2.25 v 3.2 c 0,0 35.36,10.22 58.67,26.21 a 24.63,24.63 0 0 1 3.87,-5.73 c -8.91,-8.1 -42.7,-21.3 -57.72,-26.94 z"
     id="path158"
     inkscape:connector-curvature="0"
     style="fill:#6c63ff" />
  <path
     d="m 707.19,235.51 -0.32,-1.75 c -0.16,-0.84 -0.33,-1.78 -0.53,-2.85 v 0 C 703.51,216 696.27,180.99 689.9,176.01 l -3.81,0.81 c 2.32,6.23 17.27,46.91 16,54.85 -25,5 -50.35,21.25 -58,26.43 a 10.93,10.93 0 0 1 4.69,5.58 142.94,142.94 0 0 1 58.81,-26.06 c 0,0 -0.15,-0.75 -0.4,-2.11 z"
     id="path160"
     inkscape:connector-curvature="0"
     style="opacity:0.1" />
  <path
     d="m 708.1,236.43 c -0.09,-0.51 -0.2,-1.1 -0.32,-1.75 -0.15,-0.84 -0.33,-1.79 -0.53,-2.85 v 0 c -2.84,-14.92 -10.07,-49.93 -16.44,-54.9 l -3.82,0.8 c 2.32,6.23 17.27,46.91 16,54.85 -25,5 -50.34,21.25 -58,26.44 a 10.91,10.91 0 0 1 4.69,5.57 143.09,143.09 0 0 1 58.82,-26.05 c 0,0 -0.15,-0.77 -0.4,-2.11 z"
     id="path162"
     inkscape:connector-curvature="0"
     style="fill:#6c63ff" />
  <path
     d="m 586.85,198.34 c 0,0 23.2,14.6 28.62,-6.78 l 5.16,1.38 c 0,0 1.7,23.69 -35.32,10.17 z"
     id="path164"
     inkscape:connector-curvature="0"
     style="opacity:0.1" />
  <path
     d="m 586.85,196.51 c 0,0 23.2,14.6 28.62,-6.78 l 5.16,1.38 c 0,0 1.7,23.69 -35.32,10.17 z"
     id="path166"
     inkscape:connector-curvature="0"
     style="fill:#6c63ff" />
  <path
     d="m 659.85,192.25 c 0,0 3,17.47 34.79,9 l -1.12,-3.3 c 0,0 -21.71,9 -29.58,-6.63 z"
     id="path168"
     inkscape:connector-curvature="0"
     style="opacity:0.1" />
  <path
     d="m 659.85,190.42 c 0,0 3,17.47 34.79,9 l -1.12,-3.3 c 0,0 -21.71,9 -29.58,-6.63 z"
     id="path170"
     inkscape:connector-curvature="0"
     style="fill:#6c63ff" />
  <path
     d="m 638.69,192.02 v 36.46 h 5.64 c 0,0 7.8,-2.81 7.62,-19.2 -0.18,-16.39 -1.37,-20.8 -1.37,-20.8 z"
     id="path172"
     inkscape:connector-curvature="0"
     style="opacity:0.1" />
  <path
     d="m 637.78,191.11 v 36.46 h 5.64 c 0,0 7.8,-2.81 7.62,-19.2 -0.18,-16.39 -1.38,-20.8 -1.38,-20.8 z"
     id="path174"
     inkscape:connector-curvature="0"
     style="fill:#6c63ff" />
  <path
     d="m 690.78,178.77 c -2.3,4.28 -23.18,11.31 -26.87,12.52 l -0.56,0.18 c 0,0 -1.32,0.34 -3.53,0.8 -6.72,1.4 -21.7,4 -33,1.72 -1.64,-0.32 -3.34,-0.67 -5.07,-1 l -4,-0.87 c -13,-2.89 -26.45,-6.67 -28.84,-10 0,0 0.65,-10.87 2.84,-10.58 2.19,0.29 26.64,10.58 26.64,10.58 l 0.35,0.05 c 0.63,0.08 2.06,0.26 4.07,0.49 7.94,0.87 24.67,2.25 33.67,-0.16 0.43,-0.12 0.83,-0.24 1.22,-0.38 0.68,-0.23 1.39,-0.47 2.12,-0.74 11.58,-4.1 28.92,-11.44 28.92,-11.44 0,0 4.58,4.12 2.04,8.83 z"
     id="path176"
     inkscape:connector-curvature="0"
     style="opacity:0.1" />
  <path
     d="m 688.78,169.31 c -0.92,4.55 -26.51,14.83 -26.51,14.83 l -33.15,3.43 -24.45,-3.88 -13.12,-7.77 0.09,-4.8 a 2,2 0 0 1 0.7,-2.21 c 4.35,1.32 26,10.43 26,10.43 l 0.35,0.05 c 0.63,0.08 2.06,0.26 4.07,0.49 7.94,0.87 24.67,2.25 33.67,-0.16 0.43,-0.12 0.83,-0.24 1.22,-0.38 0.68,-0.22 1.39,-0.47 2.12,-0.74 10.47,-3.71 25.66,-10.07 28.47,-11.25 a 2,2 0 0 1 0.54,1.96 z"
     id="path178"
     inkscape:connector-curvature="0"
     style="opacity:0.1" />
  <path
     d="m 690.78,176.93 c -2.3,4.28 -23.18,11.3 -26.87,12.51 l -0.56,0.19 c 0,0 -1.32,0.33 -3.53,0.79 -6.72,1.4 -21.7,4 -33,1.72 -1.64,-0.32 -3.34,-0.67 -5.07,-1 l -4,-0.87 c -13,-2.89 -26.45,-6.67 -28.84,-10 0,0 0.65,-10.87 2.84,-10.57 2.19,0.3 26.64,10.57 26.64,10.57 l 0.35,0.05 c 0.63,0.08 2.06,0.27 4.07,0.49 7.94,0.87 24.67,2.25 33.67,-0.16 0.43,-0.12 0.83,-0.24 1.22,-0.38 0.68,-0.22 1.39,-0.47 2.12,-0.74 11.58,-4.1 28.92,-11.44 28.92,-11.44 0,0 4.58,4.15 2.04,8.84 z"
     id="path180"
     inkscape:connector-curvature="0"
     style="fill:#6c63ff" />
  <circle
     cx="642.65002"
     cy="188.48"
     r="3.6600001"
     id="circle182"
     style="opacity:0.1" />
  <circle
     cx="642.65002"
     cy="187.56"
     r="3.6600001"
     id="circle184"
     style="fill:#6c63ff" />
  <path
     d="m 623.68,180.77 -1,10.32 -4,-0.87 1,-9.94 c 0.56,0.1 2,0.29 4,0.49 z"
     id="path186"
     inkscape:connector-curvature="0"
     style="opacity:0.1" />
  <path
     d="m 622.78,180.77 -1,10.32 -4,-0.87 1,-9.94 c 0.55,0.1 2,0.29 4,0.49 z"
     id="path188"
     inkscape:connector-curvature="0"
     style="fill:#6c63ff" />
  <path
     d="m 663.02,189.44 -0.56,0.19 c 0,0 -1.31,0.33 -3.53,0.79 l -3.41,-9.79 c 0.43,-0.12 0.84,-0.24 1.23,-0.38 0.68,-0.22 1.39,-0.47 2.12,-0.74 z"
     id="path190"
     inkscape:connector-curvature="0"
     style="opacity:0.1" />
  <path
     d="m 663.94,189.44 -0.56,0.19 c 0,0 -1.32,0.33 -3.53,0.79 l -3.41,-9.79 c 0.43,-0.12 0.83,-0.24 1.22,-0.38 0.68,-0.22 1.39,-0.47 2.12,-0.74 z"
     id="path192"
     inkscape:connector-curvature="0"
     style="fill:#6c63ff" />
  <g
     id="g216"
     style="opacity:0.5">
    <path
       d="m 498.24,221 a 26.4,26.4 0 0 1 13.29,3.69 c 0,0 12.18,1.48 18.82,0 6.64,-1.48 10,-6.64 11.26,-5.17 1.26,1.47 1.29,15.32 1.29,15.32 l -5.72,15.32 -12.92,9.59 -20.48,-5.9 -6.78,-17.33 z"
       transform="translate(-92.22,-58.23)"
       id="path194"
       inkscape:connector-curvature="0"
       style="fill:#6c63ff" />
    <path
       d="m 542.9,234.86 -5.72,15.32 -12.92,9.59 -20.48,-5.9 -6.78,-17.35 1.29,-15.5 h 0.3 a 27.12,27.12 0 0 1 13,3.7 c 0,0 12.18,1.48 18.82,0 6.31,-1.4 9.63,-6.14 11,-5.34 v 0 a 0.62,0.62 0 0 1 0.21,0.16 c 1.28,1.46 1.28,15.32 1.28,15.32 z"
       transform="translate(-92.22,-58.23)"
       id="path196"
       inkscape:connector-curvature="0"
       style="opacity:0.1" />
    <path
       d="m 542.9,234.86 -5.72,15.32 -12.92,9.59 -20.48,-5.9 -6.78,-17.35 1.29,-15.5 h 0.3 c 1.14,4.89 6,20.33 21.48,21.42 15.92,1.11 20.44,-17.83 21.38,-23.05 a 0.62,0.62 0 0 1 0.21,0.16 c 1.24,1.45 1.24,15.31 1.24,15.31 z"
       transform="translate(-92.22,-58.23)"
       id="path198"
       inkscape:connector-curvature="0"
       style="opacity:0.1" />
    <path
       d="m 498.24,221 c 0,0 3.32,21.59 21.78,22.88 18.46,1.29 21.59,-24.36 21.59,-24.36 0,0 26.76,8.77 33,24.41 6.24,15.64 10.89,28.19 10.89,28.19 0,0 -2,3.5 -4.25,3.87 -2.25,0.37 -17.53,10.89 -17.53,10.89 0,0 -0.18,29.9 1.48,31.74 1.66,1.84 1.11,9.78 -3.88,9.41 -4.99,-0.37 -39.49,-8.12 -69,-1.66 0,0 -12.36,4.43 -12,-2.77 0.36,-7.2 0.92,-35.43 0.92,-35.43 0,0 -18.64,-8.12 -19.74,-8.12 -1.1,0 -3.88,-1.46 -0.93,-6.27 2.95,-4.81 6.65,-21.22 6.65,-21.22 0,0 7.4,-23.56 31.02,-31.56 z"
       transform="translate(-92.22,-58.23)"
       id="path200"
       inkscape:connector-curvature="0"
       style="fill:#6c63ff" />
    <path
       d="m 555.63,259.77 c 0,0 5.54,4.06 4.25,7.2 -1.29,3.14 -4.25,-7.2 -4.25,-7.2 z"
       transform="translate(-92.22,-58.23)"
       id="path202"
       inkscape:connector-curvature="0"
       style="opacity:0.1" />
    <path
       d="m 563.75,263.67 a 10,10 0 0 0 0,5.51"
       transform="translate(-92.22,-58.23)"
       id="path204"
       inkscape:connector-curvature="0"
       style="opacity:0.1" />
    <path
       d="m 567.44,273.8 c 0,0 0.74,5 -1.47,5.53"
       transform="translate(-92.22,-58.23)"
       id="path206"
       inkscape:connector-curvature="0"
       style="opacity:0.1" />
    <path
       d="m 492.15,258.48 c 0,0 -10.33,9 -6.83,12.55"
       transform="translate(-92.22,-58.23)"
       id="path208"
       inkscape:connector-curvature="0"
       style="opacity:0.1" />
    <path
       d="m 485.69,280.26 c 0,0 -0.17,9.41 2.68,10.15"
       transform="translate(-92.22,-58.23)"
       id="path210"
       inkscape:connector-curvature="0"
       style="opacity:0.1" />
    <path
       d="m 515.4,311.81 c 0,0 7,-4.79 8.86,-4.61"
       transform="translate(-92.22,-58.23)"
       id="path212"
       inkscape:connector-curvature="0"
       style="opacity:0.1" />
    <path
       d="m 522.4,316.8 c 0,0 7.58,-5.36 9.61,-5"
       transform="translate(-92.22,-58.23)"
       id="path214"
       inkscape:connector-curvature="0"
       style="opacity:0.1" />
  </g>
  <g
     id="g254"
     style="opacity:0.5">
    <path
       d="m 687,402.65 c 0,0 60.38,2.86 90.4,1.1 l -0.66,7.92 -53.12,7 -15.72,-4.84 z"
       transform="translate(-92.22,-58.23)"
       id="path218"
       inkscape:connector-curvature="0"
       style="fill:#6c63ff" />
    <path
       d="m 777.44,403.75 -0.66,7.92 -53.11,7 -15.73,-4.84 L 687,402.65 c 0,0 1.24,0.07 3.45,0.16 v 0 c 13.1,0.57 60.27,2.41 86.17,1 z"
       transform="translate(-92.22,-58.23)"
       id="path220"
       inkscape:connector-curvature="0"
       style="opacity:0.1" />
    <path
       d="m 798.34,516.37 c -11.66,7 -52.13,0.22 -52.13,0.22 l -11.22,-40 -12.54,40.69 c -17.81,6.38 -54.55,-2.86 -54.55,-2.86 l 14.3,-88 2.47,-12.13 2.33,-11.64 22.66,6.82 c 0,0 6.81,4.62 35.19,3.3 28.38,-1.32 32.55,-9 32.55,-9 1.25,0.36 2.44,4.77 3.64,10.25 1.74,8 3.51,18.26 5.6,21.65 3.56,5.7 11.7,80.7 11.7,80.7 z"
       transform="translate(-92.22,-58.23)"
       id="path222"
       inkscape:connector-curvature="0"
       style="fill:#6c63ff" />
    <path
       d="m 781.08,414.88 c -25.3,13.89 -47.08,13.51 -47.08,13.51 -5.39,0.66 -49.33,-13.23 -49.33,-13.23 l 2.33,-11.63 22.66,6.82 c 0,0 6.81,4.62 35.19,3.3 28.38,-1.32 32.55,-9 32.55,-9 1.29,0.35 2.48,4.75 3.68,10.23 z"
       transform="translate(-92.22,-58.23)"
       id="path224"
       inkscape:connector-curvature="0"
       style="opacity:0.1" />
    <path
       d="m 777.44,403.75 -0.66,7.92 -53.11,7 -15.73,-4.84 L 687,402.65 c 0,0 1.24,0.07 3.45,0.16 v 0 l 19.2,5.78 c 0,0 6.81,4.62 35.19,3.3 22.29,-1 29.65,-6 31.78,-8.09 z"
       transform="translate(-92.22,-58.23)"
       id="path226"
       inkscape:connector-curvature="0"
       style="opacity:0.1" />
    <path
       d="m 781.08,414 c -25.3,13.89 -47.08,13.51 -47.08,13.51 -5.39,0.66 -49.33,-13.23 -49.33,-13.23 l 2.33,-11.63 22.66,6.82 c 0,0 6.81,4.62 35.19,3.3 28.38,-1.32 32.55,-9 32.55,-9 1.29,0.34 2.48,4.75 3.68,10.23 z"
       transform="translate(-92.22,-58.23)"
       id="path228"
       inkscape:connector-curvature="0"
       style="fill:#6c63ff" />
    <circle
       cx="646.07001"
       cy="364.87"
       r="2.3099999"
       id="circle230"
       style="opacity:0.1" />
    <circle
       cx="646.07001"
       cy="363.98999"
       r="2.3099999"
       stroke-miterlimit="10"
       id="circle232"
       style="fill:none;stroke:#6c63ff;stroke-miterlimit:10" />
    <path
       d="m 679.23,463.58 c 0,0 4.07,12.1 6.93,11.88 2.86,-0.22 -6.93,-11.88 -6.93,-11.88 z"
       transform="translate(-92.22,-58.23)"
       id="path234"
       inkscape:connector-curvature="0"
       style="opacity:0.1" />
    <path
       d="m 676.59,475.46 c 0,0 2.53,7.26 5.17,8.47"
       transform="translate(-92.22,-58.23)"
       id="path236"
       inkscape:connector-curvature="0"
       style="opacity:0.1" />
    <path
       d="m 676.59,483.05 c 0,0 4,5.06 6.37,6.27"
       transform="translate(-92.22,-58.23)"
       id="path238"
       inkscape:connector-curvature="0"
       style="opacity:0.1" />
    <path
       d="m 784,437.3 c 0,0 3.74,5.61 0,6.82"
       transform="translate(-92.22,-58.23)"
       id="path240"
       inkscape:connector-curvature="0"
       style="opacity:0.1" />
    <path
       d="m 785.7,446.42 c -4.34,-5.15 -1.66,7 -1.66,7 0,0 2.77,-5.68 1.66,-7 z"
       transform="translate(-92.22,-58.23)"
       id="path242"
       inkscape:connector-curvature="0"
       style="opacity:0.1" />
    <path
       d="m 787.89,452.69 c 0,0 -6.6,9.79 -5.28,10.89"
       transform="translate(-92.22,-58.23)"
       id="path244"
       inkscape:connector-curvature="0"
       style="opacity:0.1" />
    <path
       d="m 700.58,437.51 c -8.09,0 -16.53,-3.66 -17,-3.88 l 0.36,-0.81 c 0.16,0.08 16.31,7.09 25.05,1.83 3.3,-2 5.15,-5.52 5.51,-10.5 l 0.88,0.07 c -0.38,5.28 -2.38,9 -5.94,11.18 a 17,17 0 0 1 -8.86,2.11 z"
       transform="translate(-92.22,-58.23)"
       id="path246"
       inkscape:connector-curvature="0"
       style="opacity:0.1" />
    <path
       d="m 700.58,436.63 c -8.09,0 -16.53,-3.66 -17,-3.88 l 0.36,-0.8 c 0.16,0.07 16.31,7.08 25.05,1.82 3.3,-2 5.15,-5.52 5.51,-10.5 l 0.88,0.07 c -0.38,5.28 -2.38,9 -5.94,11.18 a 17,17 0 0 1 -8.86,2.11 z"
       transform="translate(-92.22,-58.23)"
       id="path248"
       inkscape:connector-curvature="0"
       style="fill:#6c63ff" />
    <path
       d="m 767,438.17 a 13.69,13.69 0 0 1 -6,-1.29 c -6.56,-3.16 -7.62,-10.9 -7.67,-11.23 l 0.88,-0.11 c 0,0.08 1.05,7.61 7.18,10.55 5.46,2.63 13.21,1 23,-5 l 0.45,0.75 c -6.97,4.22 -12.94,6.33 -17.84,6.33 z"
       transform="translate(-92.22,-58.23)"
       id="path250"
       inkscape:connector-curvature="0"
       style="opacity:0.1" />
    <path
       d="M 767,437.29 A 13.69,13.69 0 0 1 761,436 c -6.56,-3.16 -7.62,-10.9 -7.67,-11.23 l 0.88,-0.11 c 0,0.08 1.05,7.61 7.18,10.55 5.46,2.63 13.21,1 23,-5 l 0.45,0.75 c -6.97,4.22 -12.94,6.33 -17.84,6.33 z"
       transform="translate(-92.22,-58.23)"
       id="path252"
       inkscape:connector-curvature="0"
       style="fill:#6c63ff" />
  </g>
  <path
     d="m 411.12,345.77 c 0,0 11.35,15.85 19.06,14.31 7.71,-1.54 8.47,-3.23 15.32,-14.31 l 5.62,12.93 -6.62,16 -7.84,10.15 -16.62,-2.61 -5.38,-18.16 z"
     id="path256"
     inkscape:connector-curvature="0"
     style="fill:#6c63ff" />
  <path
     d="m 451.12,358.69 -6.62,16 -7.84,10.15 -16.62,-2.61 -5.38,-18.16 -3.54,-18.3 c 0,0 1,1.38 2.56,3.28 3.81,4.55 11.06,12.11 16.5,11 7.6,-1.52 8.45,-3.19 15.05,-13.86 l 0.27,-0.45 z"
     id="path258"
     inkscape:connector-curvature="0"
     style="opacity:0.1" />
  <path
     d="m 451.12,358.69 -6.62,16 -7.84,10.15 -16.62,-2.61 -5.38,-18.16 -3.54,-18.3 c 0,0 1,1.38 2.56,3.28 2.48,8 7.81,20.83 16.5,20.72 9.81,-0.11 13.77,-16.36 15.05,-23.55 l 0.27,-0.45 z"
     id="path260"
     inkscape:connector-curvature="0"
     style="opacity:0.1" />
  <path
     d="m 405.12,345.3 c 0,0 -3.85,-0.46 -1.85,4.31 2,4.77 5.69,20.46 3.85,23.69 -1.84,3.23 -0.92,12 -8.92,13.7 l 2.3,9.07 c 0,0 0.46,20 -0.46,22.93 -0.92,2.93 -1.08,19.07 -0.77,20.76 0.31,1.69 0.16,12.77 -1.07,13.24 -1.23,0.47 -2,5.84 2,6.76 4,0.92 21.07,1.39 24.15,2.31 3.08,0.92 24.92,0 24.92,0 0,0 9.23,-1.23 11.54,-2 2.31,-0.77 2.77,-2.61 2,-6.15 -0.77,-3.54 -4.31,-29.23 -3.54,-32.46 0.77,-3.23 0.93,-34.77 0.93,-34.77 0,0 -6,-2 -6,-7.85 0,-5.85 -2.31,-21.54 2.46,-31.38 0,0 -3.85,-2.64 -4.46,-2.17 -0.61,0.47 -6.42,-1.22 -6.42,-1.22 0,0 -3,26.77 -15.55,26.92 -12.55,0.15 -18.14,-26.92 -18.14,-26.92 0,0 0.11,-2.46 -6.97,1.23 z"
     id="path262"
     inkscape:connector-curvature="0"
     style="fill:#6c63ff" />
  <path
     d="m 423.27,431.15 c 0,0 2.59,6.31 6.91,7.23 4.32,0.92 -6.91,-7.23 -6.91,-7.23 z"
     id="path264"
     inkscape:connector-curvature="0"
     style="opacity:0.1" />
  <path
     d="m 419.27,436.07 c 0,0 8.36,6.77 8,8.16"
     id="path266"
     inkscape:connector-curvature="0"
     style="opacity:0.1" />
  <path
     d="m 402.5,396.07 c 0,0 6.62,4.46 6.62,7.69"
     id="path268"
     inkscape:connector-curvature="0"
     style="opacity:0.1" />
  <path
     d="m 406.96,410.07 c 0,0 -1.84,-6.46 -3.07,-7.84"
     id="path270"
     inkscape:connector-curvature="0"
     style="opacity:0.1" />
  <path
     d="m 403.89,412.53 c 0,0 2.77,5.54 3.07,7.08"
     id="path272"
     inkscape:connector-curvature="0"
     style="opacity:0.1" />
  <path
     d="m 457.58,401.3 c 0,0 -8.61,2.62 -7.85,5.85"
     id="path274"
     inkscape:connector-curvature="0"
     style="opacity:0.1" />
  <path
     d="m 449.69,431.15 c 0,0 11.28,-13.08 7.89,-12.77 -3.39,0.31 -7.89,12.77 -7.89,12.77 z"
     id="path276"
     inkscape:connector-curvature="0"
     style="opacity:0.1" />
  <g
     id="g290"
     style="opacity:0.1">
    <path
       d="m 546.41,437.07 c 0,-2.7 -0.49,-7.5 -0.55,-12.85 -0.06,6.14 0.55,11.82 0.55,14.85 0,5.72 5.73,7.75 6,7.84 0,-1.25 0,-2 0,-2 0,0 -6,-1.99 -6,-7.84 z"
       transform="translate(-92.22,-58.23)"
       id="path278"
       inkscape:connector-curvature="0" />
    <path
       d="m 555,514.15 a 15.57,15.57 0 0 1 0.27,1.59 10,10 0 0 0 -0.27,-3.59 c -0.66,-3 -3.34,-22.26 -3.62,-29.78 -0.3,5.14 2.92,28.42 3.62,31.78 z"
       transform="translate(-92.22,-58.23)"
       id="path280"
       inkscape:connector-curvature="0" />
    <path
       d="m 491.35,494.2 c 0,-5.49 0.31,-13.06 0.91,-15 0.49,-1.56 0.59,-7.94 0.58,-13.58 0,5.06 -0.15,10.2 -0.58,11.58 -0.68,2.18 -0.94,11.56 -0.91,17 z"
       transform="translate(-92.22,-58.23)"
       id="path282"
       inkscape:connector-curvature="0" />
    <path
       d="m 497.34,405.53 c 7.07,-3.69 6.92,-1.23 6.92,-1.23 0,0 5.54,27.08 18.14,26.92 12.6,-0.16 15.6,-26.92 15.6,-26.92 0,0 5.85,1.69 6.46,1.22 0.61,-0.47 2.66,1 3.79,1.72 0.21,-0.53 0.43,-1.05 0.68,-1.55 0,0 -3.85,-2.64 -4.47,-2.17 -0.62,0.47 -6.46,-1.22 -6.46,-1.22 0,0 -3,26.77 -15.55,26.92 -12.55,0.15 -18.14,-26.92 -18.14,-26.92 0,0 0.15,-2.46 -6.92,1.23 0,0 -3.13,-0.36 -2.26,3.09 0.5,-1.29 2.21,-1.09 2.21,-1.09 z"
       transform="translate(-92.22,-58.23)"
       id="path284"
       inkscape:connector-curvature="0" />
    <path
       d="m 490.41,513.23 c 1,-0.37 1.27,-7.22 1.21,-11 -0.05,3.8 -0.4,8.69 -1.21,9 -0.81,0.31 -1.2,2 -0.89,3.63 0.16,-0.86 0.48,-1.49 0.89,-1.63 z"
       transform="translate(-92.22,-58.23)"
       id="path286"
       inkscape:connector-curvature="0" />
    <path
       d="m 499.34,433.53 a 8.6,8.6 0 0 0 0.47,-4.11 5.27,5.27 0 0 1 -0.47,2.11 c -1.85,3.23 -0.93,12 -8.93,13.7 l 0.48,1.88 c 7.48,-1.94 6.64,-10.41 8.45,-13.58 z"
       transform="translate(-92.22,-58.23)"
       id="path288"
       inkscape:connector-curvature="0" />
  </g>
  <path
     d="m 451.56,533.41 c -3.78,6.88 -42.15,0 -42.15,0 l 0.1,-0.69 0.76,-5.33 h 40.43 l 0.77,5.32 z"
     id="path292"
     inkscape:connector-curvature="0"
     style="fill:#6c63ff" />
  <path
     d="m 451.56,533.41 c -3.78,6.88 -42.15,0 -42.15,0 l 0.1,-0.69 c 1.84,0 29.6,-0.66 42,0 z"
     id="path294"
     inkscape:connector-curvature="0"
     style="opacity:0.1" />
  <path
     d="m 409.41,533.41 v 0 c 0,0 -6.88,1.72 -17.55,30.62 -10.67,28.9 -14.45,66.24 -14.45,66.24 0,0 -6,10.16 19.61,10.84 0,0 -2.06,6.71 12.39,5.68 14.45,-1.03 12.37,-1.02 12.37,-1.02 0,0 9.29,-5.85 13.42,-4.82 4.13,1.03 6.71,1.38 11.18,5.16 4.47,3.78 18.76,2.24 18.93,-0.68 a 27,27 0 0 0 0,-4.31 c 0,0 21.85,1.38 17.72,-14.45 -4.13,-15.83 -7.57,-41.81 -7.57,-41.81 0,0 -11.18,-50.75 -23.92,-51.44 -12.74,-0.69 -42.13,-0.01 -42.13,-0.01 z"
     id="path296"
     inkscape:connector-curvature="0"
     style="fill:#6c63ff" />
  <rect
     x="-601.98425"
     y="453.9227"
     width="88.120003"
     height="0.69"
     transform="rotate(-84.73)"
     id="rect298"
     style="opacity:0.1" />
  <rect
     x="-644.08502"
     y="423.88834"
     width="92.389999"
     height="0.69"
     transform="rotate(-89.78)"
     id="rect300"
     style="opacity:0.1" />
  <path
     d="M 442.96,553.37"
     stroke-miterlimit="10"
     id="path302"
     inkscape:connector-curvature="0"
     style="fill:none;stroke:#6c63ff;stroke-miterlimit:10" />
  <rect
     x="421.79782"
     y="569.39551"
     width="0.69"
     height="92.800003"
     transform="rotate(-2.13)"
     id="rect304"
     style="opacity:0.1" />
  <path
     d="m 464.98,641.12 c -1.2,-52.85 -10.2,-89.03 -10.31,-89.35 l 0.67,-0.17 c 0.09,0.36 9.14,36.61 10.33,89.55 z"
     id="path306"
     inkscape:connector-curvature="0"
     style="opacity:0.1" />
  <path
     d="m 410.61,538.57 c 0,0 -1.2,0.69 0,4"
     id="path308"
     inkscape:connector-curvature="0"
     style="opacity:0.1" />
  <path
     d="m 414.06,538.57 c 0,0 -3.27,2.06 0,5.51"
     id="path310"
     inkscape:connector-curvature="0"
     style="opacity:0.1" />
  <path
     d="m 444.68,538.57 c 0,0 4.47,4.3 3.44,5.51"
     id="path312"
     inkscape:connector-curvature="0"
     style="opacity:0.1" />
  <path
     d="m 448.28,537.54 c 0,0 0.7,5.16 3.28,6.54"
     id="path314"
     inkscape:connector-curvature="0"
     style="opacity:0.1" />
  <g
     id="g350"
     style="opacity:0.5">
    <path
       d="m 723.12,587.52 c 0,0 16.88,-6.72 24.18,1.48 7.3,8.2 -5,18.18 -5,18.18 l -5.16,10.3 -12.14,-1.33 -2.86,-14.24 z"
       transform="translate(-92.22,-58.23)"
       id="path316"
       inkscape:connector-curvature="0"
       style="fill:#6c63ff" />
    <path
       d="m 742.3,607.13 -5.16,10.3 -12.14,-1.29 -2.86,-14.23 1,-14.39 0.27,-0.1 c 2.14,-0.79 16.59,-5.83 23.5,1.11 a 5.35,5.35 0 0 1 0.41,0.42 c 7.28,8.16 -5.02,18.18 -5.02,18.18 z"
       transform="translate(-92.22,-58.23)"
       id="path318"
       inkscape:connector-curvature="0"
       style="opacity:0.1" />
    <path
       d="m 742.3,607.13 -5.16,10.3 -12.14,-1.29 -2.86,-14.23 1,-14.39 0.27,-0.1 c 2.09,11.45 7.67,16.28 8.61,17 l 0.14,0.1 3.43,-0.28 c 6.67,-3.68 10.19,-12.43 11.32,-15.74 a 5.35,5.35 0 0 1 0.41,0.42 c 7.28,8.19 -5.02,18.21 -5.02,18.21 z"
       transform="translate(-92.22,-58.23)"
       id="path320"
       inkscape:connector-curvature="0"
       style="opacity:0.1" />
    <path
       d="m 771.78,646.35 c 0,0 -3.72,47.38 -2.71,53.1 1.01,5.72 -2.15,6.15 -2.15,6.15 0,0 -13.46,3 -16,1 -2.54,-2 -6.87,-2.39 -6.87,-2.39 0,0 -10,2.29 -14.46,0.58 -4.46,-1.71 -11.88,-1 -11.88,-1 0,0 -5.72,3.44 -7.3,2.72 -1.58,-0.72 -3.58,-0.43 -8.16,-1.71 -4.58,-1.28 -7.16,-2.44 -4.73,-10.31 2.43,-7.87 0.3,-32.78 0.15,-35.79 -0.15,-3.01 -1.57,-10.3 -3.58,-19 -2.01,-8.7 3.43,-6.87 3.43,-6.87 12.75,-6.58 7.45,-19.47 5.45,-25.19 -2,-5.72 1.14,-6 2.71,-6 1.57,0 7.59,-5.15 7.59,-5.15 l 2.44,-2.19 7.44,-6.68 c 1.85,12.51 7.85,17.76 8.85,18.54 l 0.14,0.11 3.43,-0.29 c 8.3,-4.57 11.73,-17 11.73,-17 1,1.7 3.23,3.64 5.72,5.44 a 98,98 0 0 0 10.17,6.3 c 6,3.58 1.58,7.16 1.58,7.16 -7.3,24.9 3,26 3,26 7.59,1.12 4.01,12.47 4.01,12.47 z"
       transform="translate(-92.22,-58.23)"
       id="path322"
       inkscape:connector-curvature="0"
       style="fill:#6c63ff" />
    <path
       d="m 715.53,601.69 c 0,0 -2.15,1.15 -2.15,2.43"
       transform="translate(-92.22,-58.23)"
       id="path324"
       inkscape:connector-curvature="0"
       style="opacity:0.1" />
    <path
       d="m 716.82,604.12 c 0,0 -2.86,3 -2.36,3.87"
       transform="translate(-92.22,-58.23)"
       id="path326"
       inkscape:connector-curvature="0"
       style="opacity:0.1" />
    <path
       d="m 716.82,608 c 0,0 -2.15,2.29 -1.29,3.58"
       transform="translate(-92.22,-58.23)"
       id="path328"
       inkscape:connector-curvature="0"
       style="opacity:0.1" />
    <path
       d="m 731.14,607.88 -9,8.69 c -0.33,-9.66 -5,-17.39 -7.3,-20.65 l 7.44,-6.68 c 1.82,12.61 7.87,17.86 8.86,18.64 z"
       transform="translate(-92.22,-58.23)"
       id="path330"
       inkscape:connector-curvature="0"
       style="opacity:0.1" />
    <path
       d="m 732,606.16 -9,8.7 c -0.32,-9.67 -5,-17.39 -7.29,-20.66 l 7.44,-6.68 c 1.85,12.61 7.85,17.86 8.85,18.64 z"
       transform="translate(-92.22,-58.23)"
       id="path332"
       inkscape:connector-curvature="0"
       style="fill:#6c63ff" />
    <path
       d="m 753.88,596.11 c -3.6,5.62 -10.29,20.46 -10.29,20.46 l -7.16,-8.87 c 8.3,-4.58 11.73,-17 11.73,-17 1,1.66 3.23,3.6 5.72,5.41 z"
       transform="translate(-92.22,-58.23)"
       id="path334"
       inkscape:connector-curvature="0"
       style="opacity:0.1" />
    <path
       d="m 753,594.39 c -3.59,5.63 -10.29,20.47 -10.29,20.47 L 735.57,606 c 8.3,-4.57 11.73,-17 11.73,-17 1,1.65 3.23,3.59 5.7,5.39 z"
       transform="translate(-92.22,-58.23)"
       id="path336"
       inkscape:connector-curvature="0"
       style="fill:#6c63ff" />
    <path
       d="m 747.74,686.14 c 0,0 -1.53,13 -2.41,13.74"
       transform="translate(-92.22,-58.23)"
       id="path338"
       inkscape:connector-curvature="0"
       style="opacity:0.1" />
    <path
       d="m 760.33,688.43 c 0,0 1.72,9.3 1,11.45"
       transform="translate(-92.22,-58.23)"
       id="path340"
       inkscape:connector-curvature="0"
       style="opacity:0.1" />
    <path
       d="m 723.69,689 c 0,0 -1.57,8.73 0,9.73"
       transform="translate(-92.22,-58.23)"
       id="path342"
       inkscape:connector-curvature="0"
       style="opacity:0.1" />
    <path
       d="m 714.4,687.71 c 0,0 -1.3,10.31 -1,12.17"
       transform="translate(-92.22,-58.23)"
       id="path344"
       inkscape:connector-curvature="0"
       style="opacity:0.1" />
    <path
       d="m 762.48,637.47 c 0,0 -4,3.15 -3.72,4"
       transform="translate(-92.22,-58.23)"
       id="path346"
       inkscape:connector-curvature="0"
       style="opacity:0.1" />
    <path
       d="m 765.34,639.48 c 0,0 -7.66,6.44 -3.83,5.72 3.83,-0.72 3.83,-5.72 3.83,-5.72 z"
       transform="translate(-92.22,-58.23)"
       id="path348"
       inkscape:connector-curvature="0"
       style="opacity:0.1" />
  </g>
  <path
     d="m 248.78,396.77 0.05,-0.07 -0.09,-0.07 v 0 l -0.54,-0.36 0.11,0.08 a 1.79,1.79 0 0 0 -2.36,0.52 l -0.22,0.31 v 0 l -12.15,17.48 -2.12,3.11 c -6.41,-1.93 -16.82,6.19 -22.09,10.85 -0.33,0.29 -0.64,0.56 -0.92,0.82 -0.42,-0.94 -0.67,-1.54 -0.67,-1.54 -0.26,2.86 -10.36,7.15 -12.72,8.71 a 8.5,8.5 0 0 1 -3.52,1.18 c 0.34,-10.87 -8.07,-22.31 -8.07,-22.31 l -20.55,-26.15 a 23.08,23.08 0 0 1 2.1,-13.87 c 0.17,-0.34 0.34,-0.68 0.53,-1 h 0.1 a 22.74,22.74 0 0 0 -1.29,6.83 c 0.05,1.77 1.69,10.35 4,10 a 1.26,1.26 0 0 0 1.18,-0.56 c 1.84,-2.14 2,-5.78 1.91,-9.15 a 18.75,18.75 0 0 1 -0.33,2.95 c 0.15,-2.8 -0.17,-5.76 -0.17,-7.87 0,-0.84 0,-1.67 0.06,-2.51 h 0.25 c 0,0.32 0,0.66 0,1 0,-0.35 0,-0.69 0,-1 h 0.26 a 27.61,27.61 0 0 0 12.55,-5.82 6.73,6.73 0 0 0 4.72,-2.21 4.59,4.59 0 0 1 -0.89,4.28 c 2.75,-0.13 5.08,-2.27 6.14,-4.78 a 16.68,16.68 0 0 0 0.78,-8 55.59,55.59 0 0 1 -0.59,-8.13 29.91,29.91 0 0 0 0.24,-4.43 8.54,8.54 0 0 0 -0.24,-1.34 h 0.08 a 2,2 0 0 0 1.43,-0.56 c 1.14,-0.88 1.51,-2.6 1.8,-3.92 a 33.38,33.38 0 0 0 1.06,-9.31 c -0.06,0.95 -0.18,1.91 -0.32,2.86 0.25,-3.6 -0.25,-7.1 -2.63,-9.71 -1.64,-1.79 -3.93,-2.84 -6.13,-3.89 a 4.49,4.49 0 0 1 -2,-1.43 5.79,5.79 0 0 1 -0.62,-2.48 c -0.77,-5.26 -5.72,-8.92 -10.65,-11 -6.34,-2.76 -14,-3.94 -20.05,-0.66 -3,1.59 -5.3,4.08 -8,6.11 -3.38,2.57 -7.28,4.37 -10.89,6.61 -3.61,2.24 -7,5.08 -8.77,8.94 -2.65,6 -0.66,12.8 -0.33,19.31 0.53,10.25 -3.69,21 -12.05,27 a 10.81,10.81 0 0 0 -2.65,2.29 2.86,2.86 0 0 0 -0.22,3.27 c 0.43,0.56 1.11,0.88 1.58,1.41 0.95,1.08 0.76,2.73 0.39,4.11 a 25.77,25.77 0 0 1 -7,11.86 c 0.15,1.06 1.46,1.48 2.53,1.64 a 58.25,58.25 0 0 0 8.55,0.62 h 1.23 c -0.13,0.33 -0.27,0.68 -0.41,1.05 -1.55,4.08 -3.56,10.36 -2.89,14.2 1,6.06 4.2,33.77 2.62,38.63 -1.58,4.86 2.54,40.1 2.54,40.1 0,0 0.55,2.72 1.5,6.78 -2.47,5.82 -5.29,12.28 -6.7,14.87 -2.84,5.19 -1.44,31.69 8.35,43.47 0,0 4,5.72 3,7.79 -1,2.07 0.18,5.72 0.18,5.72 l 1.55,34.29 a 88.88,88.88 0 0 1 -0.72,10.48 c -4.18,5.17 -10.62,12.71 -13.65,13.94 -4.69,1.91 -39.67,44.34 -39.67,44.34 0,0 0.28,0.51 0.83,1.34 l -1,1.14 -6.71,7.78 -0.53,0.61 c -1.26,-0.24 -9.65,-1.76 -16.3,-2.24 H 51.9 v -0.12 a 24.88,24.88 0 0 0 -7,0.19 2.25,2.25 0 0 0 -1.16,0.6 c -2.27,2.78 -3.49,46.42 -3.49,46.42 0,0 2.42,21.85 10,23.07 a 4,4 0 0 0 1.2,0.22 h 0.33 c 5.4,-0.4 7.88,-3.49 9,-5.61 a 8.69,8.69 0 0 0 0.75,-2 c 0,0 -0.88,-3.89 1.48,-9.26 2.36,-5.37 6.77,-14.82 6.77,-14.82 0,0 8,-8.41 6.57,-12.49 0.22,-0.33 0.48,-0.69 0.76,-1.1 3,-4.28 9.08,-12.73 14,-18.37 0.32,-0.38 0.64,-0.73 1,-1.08 a 24.56,24.56 0 0 0 5.58,1.61 c 0,0 7.52,-2.94 10.31,-9.52 1.19,-2.8 5.86,-7.76 10.83,-12.53 l -0.16,1.27 -0.17,41.74 a 29.83,29.83 0 0 0 5.14,2.83 v 1 a 134,134 0 0 1 -1.08,17.79 l -0.15,0.93 c -0.62,-0.44 -1.16,-0.59 -1.5,-0.25 -1.54,1.56 -2.5,11.52 -2.59,16.11 0,0.15 0,0.3 0,0.46 -0.25,4.58 -2.86,11.24 5,11.58 5.88,0.25 31.23,0.63 44.79,0.83 a 30.15,30.15 0 0 0 20,-7.09 c 4.31,-3.69 6.92,-8.08 1.05,-11.31 -0.36,-0.2 -0.74,-0.39 -1.16,-0.58 l -13,-2 -22.21,-11.34 c 0,0 -0.13,-6.86 -2.8,-5.72 a 7.5,7.5 0 0 0 -2.25,0.89 c -0.13,-0.25 -0.27,-0.52 -0.4,-0.8 a 25.55,25.55 0 0 1 -2.74,-11.56 c 0,-0.36 0,-0.73 0.05,-1.1 a 22.09,22.09 0 0 0 1.84,-1.89 c 0,0 -0.17,-15.59 1.58,-18.53 1.75,-2.94 7.17,-32.74 7.17,-32.74 0,0 0.17,-5.54 3.67,-8.83 3.5,-3.29 2.27,-12.82 2.27,-12.82 0,0 4.9,-2.6 6.47,-11.08 1.57,-8.48 6.65,-27 6.65,-27 0,0 10.49,-27.37 9.8,-44.68 -0.69,-17.31 1,-26.33 1,-26.33 l 2.18,-40.24 v -0.62 c 0.87,0.66 1.46,1.2 1.46,1.2 0,0 0,-0.16 0,-0.44 0.32,0.27 0.5,0.44 0.5,0.44 0,0 1.12,-18.26 0.74,-25.5 6.12,-2.08 15.44,-5.5 16,-7.24 0.78,-2.59 11.28,-10.78 11.28,-10.78 a 1.74,1.74 0 0 1 -0.64,-0.24 c 0.33,-0.15 0.67,-0.33 1,-0.52 6.88,-3.68 19.66,-14.44 17.51,-21 l 14,-20.09 a 3.41,3.41 0 0 0 -0.35,-4.27 z"
     id="path352"
     inkscape:connector-curvature="0"
     style="fill:url(#dcaa3d52-8271-46b6-bbc0-03906cb73c47)" />
  <path
     d="m 216.21,445.29 a 9.12,9.12 0 0 1 -3.35,1.27 c -4.37,0.13 -8,-11.7 -8,-11.7 0,0 1.24,-1.26 3.22,-3 5.86,-5.21 18.15,-14.83 23.91,-9.45 6.5,6.01 -8.21,18.81 -15.78,22.88 z"
     id="path354"
     inkscape:connector-curvature="0"
     style="fill:#ecb4b6" />
  <path
     d="m 149.78,727.42 -16.13,17.41 c 0,0 -14.92,0.17 -12,-8.06 a 30.09,30.09 0 0 0 1.24,-5.48 134.65,134.65 0 0 0 1.05,-17.62 c 0,-3.86 -0.06,-6.57 -0.06,-6.57 0,0 23.49,-10.29 21.09,0.43 a 20.15,20.15 0 0 0 -0.48,4.08 25.54,25.54 0 0 0 2.68,11.45 25.91,25.91 0 0 0 2.61,4.36 z"
     id="path356"
     inkscape:connector-curvature="0"
     style="fill:#ecb4b6" />
  <path
     d="m 149.78,727.42 -16.13,17.41 c 0,0 -14.92,0.17 -12,-8.06 a 30.09,30.09 0 0 0 1.24,-5.48 c 2.13,1.65 5.19,6.51 5.19,6.51 0,0 10.29,3 13.12,-6 1.58,-5 4.08,-7.53 6,-8.74 a 25.91,25.91 0 0 0 2.58,4.36 z"
     id="path358"
     inkscape:connector-curvature="0"
     style="opacity:0.1" />
  <path
     d="m 187.2,753.64 a 29.34,29.34 0 0 1 -19.64,7 c -13.3,-0.19 -38.15,-0.58 -43.92,-0.82 -7.72,-0.34 -5.16,-6.93 -4.91,-11.47 0,-0.16 0,-0.3 0,-0.45 0.09,-4.55 1,-14.41 2.54,-15.95 1.54,-1.54 6.81,6.86 6.81,6.86 0,0 10.29,3 13.12,-6 2.83,-9 8.58,-9.87 8.58,-9.87 2.61,-1.13 2.74,5.66 2.74,5.66 l 21.78,11.23 12.78,2 c 0.41,0.19 0.78,0.38 1.13,0.57 5.78,3.24 3.22,7.58 -1.01,11.24 z"
     id="path360"
     inkscape:connector-curvature="0"
     style="fill:#c17174" />
  <circle
     cx="146.96001"
     cy="735.39001"
     r="0.94"
     id="circle362"
     style="opacity:0.25;fill:#ffffff" />
  <circle
     cx="155.8"
     cy="739.77002"
     r="0.94"
     id="circle364"
     style="opacity:0.25;fill:#ffffff" />
  <circle
     cx="160.34"
     cy="741.79999"
     r="0.94"
     id="circle366"
     style="opacity:0.25;fill:#ffffff" />
  <circle
     cx="169.77"
     cy="745.41998"
     r="0.94"
     id="circle368"
     style="opacity:0.25;fill:#ffffff" />
  <circle
     cx="164.97"
     cy="743.88"
     r="0.94"
     id="circle370"
     style="opacity:0.25;fill:#ffffff" />
  <path
     d="m 187.2,753.64 a 29.34,29.34 0 0 1 -19.64,7 c -13.3,-0.19 -38.15,-0.58 -43.92,-0.82 -7.72,-0.34 -5.16,-6.93 -4.91,-11.47 l 48.47,3 c 0,0 19.85,-3 21,-8.92 5.79,3.21 3.23,7.55 -1,11.21 z"
     id="path372"
     inkscape:connector-curvature="0"
     style="fill:#c17174" />
  <path
     d="m 187.2,753.64 a 29.34,29.34 0 0 1 -19.64,7 c -13.3,-0.19 -38.15,-0.58 -43.92,-0.82 -7.72,-0.34 -5.16,-6.93 -4.91,-11.47 l 48.47,3 c 0,0 19.85,-3 21,-8.92 5.79,3.21 3.23,7.55 -1,11.21 z"
     id="path374"
     inkscape:connector-curvature="0"
     style="opacity:0.25;fill:#ffffff" />
  <path
     d="m 96.97,683.69 a 33.47,33.47 0 0 0 -4.86,4.88 c -4.81,5.58 -10.76,14 -13.71,18.18 -1.14,1.64 -1.83,2.67 -1.83,2.67 l -6.44,-0.95 c 0,0 -6.94,-10.63 -6.85,-10.88 0.09,-0.25 5.5,-11.67 5.5,-11.67 l 2.09,-2.45 6.59,-7.7 3,-3.48 c 0,0 22.32,7.2 16.51,11.4 z"
     id="path376"
     inkscape:connector-curvature="0"
     style="fill:#ecb4b6" />
  <path
     d="m 78.4,706.77 c -1.14,1.64 -1.83,2.67 -1.83,2.67 l -6.44,-0.95 c 0,0 -6.94,-10.63 -6.85,-10.88 0.09,-0.25 5.5,-11.69 5.5,-11.69 l 2.09,-2.45 0.68,0.13 h 1.64 c -5.75,6 0.42,19.2 0.42,19.2 0,0 2.66,0.25 4.79,3.97 z"
     id="path378"
     inkscape:connector-curvature="0"
     style="opacity:0.1" />
  <path
     d="m 71.21,720.21 c 0,0 -4.29,9.26 -6.61,14.58 -2.32,5.32 -1.46,9.17 -1.46,9.17 a 9,9 0 0 1 -0.73,2 10.1,10.1 0 0 1 -8.78,5.56 h -0.42 c -7.82,-0.2 -10.3,-22.9 -10.3,-22.9 0,0 1.2,-43.21 3.43,-46 a 2.14,2.14 0 0 1 1.13,-0.6 24,24 0 0 1 6.89,-0.19 c 7.07,0.51 16.16,2.25 16.16,2.25 h 1.63 c -5.75,6 0.42,19.21 0.42,19.21 0,0 2.75,0.25 4.89,4.11 2.14,3.86 -6.25,12.81 -6.25,12.81 z"
     id="path380"
     inkscape:connector-curvature="0"
     style="fill:#c17174" />
  <circle
     cx="61.77"
     cy="707.34998"
     r="0.94"
     id="circle382"
     style="opacity:0.25;fill:#ffffff" />
  <circle
     cx="61.299999"
     cy="714.84003"
     r="0.94"
     id="circle384"
     style="opacity:0.25;fill:#ffffff" />
  <path
     d="M 61.78,745.77 A 10.1,10.1 0 0 1 53,751.33 h -0.41 c -7.82,-0.2 -10.31,-22.9 -10.31,-22.9 0,0 1.2,-43.21 3.43,-46 a 2.14,2.14 0 0 1 1.13,-0.6 24,24 0 0 1 6.89,-0.19 c -0.13,7.77 -0.5,32.32 0,34.76 0.5,2.44 4.93,22.86 8.05,29.37 z"
     id="path386"
     inkscape:connector-curvature="0"
     style="fill:#c17174" />
  <path
     d="M 61.78,745.77 A 10.1,10.1 0 0 1 53,751.33 h -0.41 c -7.82,-0.2 -10.31,-22.9 -10.31,-22.9 0,0 1.2,-43.21 3.43,-46 a 2.14,2.14 0 0 1 1.13,-0.6 24,24 0 0 1 6.89,-0.19 c -0.13,7.77 -0.5,32.32 0,34.76 0.5,2.44 4.93,22.86 8.05,29.37 z"
     id="path388"
     inkscape:connector-curvature="0"
     style="opacity:0.25;fill:#ffffff" />
  <path
     d="m 52.58,751.35 c -7.82,-0.2 -10.31,-22.9 -10.31,-22.9 0,0 1.2,-43.21 3.43,-46 a 2.14,2.14 0 0 1 1.13,-0.6 c 1.64,2.44 3.08,7.84 1.78,19.72 -2.44,22.51 0.5,23.93 0.5,23.93 0,0 3.67,19.13 3.47,25.85 z"
     id="path390"
     inkscape:connector-curvature="0"
     style="fill:#c17174" />
  <path
     d="m 52.58,751.35 c -7.82,-0.2 -10.31,-22.9 -10.31,-22.9 0,0 1.2,-43.21 3.43,-46 a 2.14,2.14 0 0 1 1.13,-0.6 c 1.64,2.44 3.08,7.84 1.78,19.72 -2.44,22.51 0.5,23.93 0.5,23.93 0,0 3.67,19.13 3.47,25.85 z"
     id="path392"
     inkscape:connector-curvature="0"
     style="opacity:0.1" />
  <path
     d="m 216.21,445.29 a 9.12,9.12 0 0 1 -3.35,1.27 c -4.37,0.13 -8,-11.7 -8,-11.7 0,0 1.24,-1.26 3.22,-3 1.43,3.2 5.37,11.83 8.13,13.43 z"
     id="path394"
     inkscape:connector-curvature="0"
     style="opacity:0.1" />
  <path
     d="m 188.17,441.03 c 0,0 3.6,0.26 5.91,-1.28 2.31,-1.54 12.22,-5.79 12.48,-8.62 0,0 5.91,14.4 9.26,14.92 0,0 -10.29,8.1 -11.06,10.67 -0.77,2.57 -20.84,8.88 -20.84,8.88 z"
     id="path396"
     inkscape:connector-curvature="0"
     style="fill:#ff748e" />
  <path
     d="m 188.17,441.03 c 0,0 3.6,0.26 5.91,-1.28 2.31,-1.54 12.22,-5.79 12.48,-8.62 0,0 5.91,14.4 9.26,14.92 0,0 -10.29,8.1 -11.06,10.67 -0.77,2.57 -20.84,8.88 -20.84,8.88 z"
     id="path398"
     inkscape:connector-curvature="0"
     style="opacity:0.1" />
  <path
     d="m 96.97,683.69 a 33.47,33.47 0 0 0 -4.86,4.88 c -7.76,-3.25 -12.76,-9.89 -14.66,-12.8 l 3,-3.48 c 0,0 22.33,7.2 16.52,11.4 z"
     id="path400"
     inkscape:connector-curvature="0"
     style="opacity:0.1" />
  <path
     d="m 133.67,610.77 c 0,0 -12.58,16.81 -17.18,18.7 -4.6,1.89 -38.89,43.9 -38.89,43.9 0,0 7.37,13.55 20.92,15.77 0,0 7.37,-2.91 10.12,-9.43 2.75,-6.52 24.35,-24.94 24.35,-24.94 z"
     id="path402"
     inkscape:connector-curvature="0"
     style="fill:#5e5a6b" />
  <path
     d="m 133.67,610.77 c 0,0 -12.58,16.81 -17.18,18.7 -4.6,1.89 -38.89,43.9 -38.89,43.9 0,0 7.37,13.55 20.92,15.77 0,0 7.37,-2.91 10.12,-9.43 2.75,-6.52 24.35,-24.94 24.35,-24.94 z"
     id="path404"
     inkscape:connector-curvature="0"
     style="opacity:0.1" />
  <path
     d="m 95.56,667.02 a 54.84,54.84 0 0 0 11.45,0 c 6.77,-0.65 1.67,3.47 -11.45,0 z"
     id="path406"
     inkscape:connector-curvature="0"
     style="opacity:0.1" />
  <path
     d="m 92.47,671.39 c 0,0 9,5.14 12.48,2.57 3.48,-2.57 -3.35,2.48 -12.48,-2.57 z"
     id="path408"
     inkscape:connector-curvature="0"
     style="opacity:0.1" />
  <path
     d="m 144.99,707.53 a 20.15,20.15 0 0 0 -0.48,4.08 c -6.95,6.31 -15.32,4.36 -20.55,2.06 0,-3.86 -0.06,-6.57 -0.06,-6.57 0,0 23.49,-10.33 21.09,0.43 z"
     id="path410"
     inkscape:connector-curvature="0"
     style="opacity:0.1" />
  <path
     d="m 186.66,483.82 -0.25,4.74 -2.14,39.85 c 0,0 -1.72,8.92 -1,26.06 0.72,17.14 -9.64,44.3 -9.64,44.3 0,0 -5,18.35 -6.52,26.75 -1.52,8.4 -6.34,11 -6.34,11 0,0 1.2,9.43 -2.23,12.69 -3.43,3.26 -3.6,8.74 -3.6,8.74 0,0 -5.32,29.5 -7,32.42 -1.68,2.92 -1.55,18.35 -1.55,18.35 -11.14,13.2 -27.43,1.2 -27.43,1.2 l 0.17,-41.33 c 0,0 4.63,-38.07 8.06,-43.39 3.43,-5.32 3.43,-19.89 3.43,-19.89 l -1.53,-34 c 0,0 -1.22,-3.6 -0.17,-5.66 1.05,-2.06 -2.93,-7.71 -2.93,-7.71 -9.61,-11.67 -11,-37.91 -8.19,-43 2.81,-5.09 11.12,-25.72 11.12,-25.72 l 11.47,-6.69 20.73,0.61 z"
     id="path412"
     inkscape:connector-curvature="0"
     style="fill:#5e5a6b" />
  <path
     d="m 137.88,685.92 c 0,0 2.71,9.39 4.89,10.42 2.18,1.03 -4.89,-10.42 -4.89,-10.42 z"
     id="path414"
     inkscape:connector-curvature="0"
     style="opacity:0.1" />
  <path
     d="m 141.61,654.67 c 0,0 7,5.54 10,5.53 3,-0.01 -10,-5.53 -10,-5.53 z"
     id="path416"
     inkscape:connector-curvature="0"
     style="opacity:0.1" />
  <path
     d="m 183.92,422.51 v 11.32 l -7.47,-3.22 -7.45,-3.21 -16.22,-15.95 c 0,0 -12.83,-8.33 -19.69,-15.92 -3.92,-4.33 -5.89,-8.42 -2.44,-10.58 a 21.5,21.5 0 0 0 4.49,-3.93 73.82,73.82 0 0 0 8.94,-13.2 c 0.11,-0.19 0.22,-0.38 0.32,-0.57 3.34,-6.13 5.55,-11.36 5.55,-11.36 0,0 9.4,3 15.44,7.28 0.49,0.34 0.95,0.69 1.39,1.05 3.37,2.76 5.05,6 1.94,9.16 a 24,24 0 0 0 -2.21,2.64 v 0 a 21.67,21.67 0 0 0 -1.38,2.16 c -0.18,0.34 -0.36,0.67 -0.52,1 a 23.06,23.06 0 0 0 -2.06,13.73 z"
     id="path418"
     inkscape:connector-curvature="0"
     style="fill:#ecb4b6" />
  <path
     d="m 182.55,341.77 c 0.39,0.68 0.93,1.26 1.29,1.95 a 9.37,9.37 0 0 1 0.57,4.8 27.3,27.3 0 0 0 0.5,7.66 c 0.53,2.26 1.52,4.44 1.6,6.76 0.11,3.27 -1.59,6.3 -3.23,9.13 a 6.57,6.57 0 0 0 4.7,-2.19 4.56,4.56 0 0 1 -0.86,4.23 c 2.69,-0.13 5,-2.25 6,-4.73 a 16.49,16.49 0 0 0 0.77,-8 54.6,54.6 0 0 1 -0.58,-8.05 29.43,29.43 0 0 0 0.23,-4.39 c -0.25,-2.91 -2,-5.44 -3.76,-7.8 l -3.48,-4.78 a 2.46,2.46 0 0 0 -1,-0.91 c -3.29,-1.4 -3.67,4.66 -2.75,6.32 z"
     id="path420"
     inkscape:connector-curvature="0"
     style="fill:#464353" />
  <path
     d="m 168.78,373.38 a 24,24 0 0 0 -2.21,2.64 v 0 a 21.67,21.67 0 0 0 -1.38,2.16 c -0.18,0.34 -0.36,0.67 -0.52,1 a 27,27 0 0 1 -20.21,-10.92 c -0.11,-0.15 -0.22,-0.3 -0.32,-0.46 0.11,-0.19 0.22,-0.38 0.32,-0.57 3.34,-6.13 5.55,-11.36 5.55,-11.36 0,0 9.4,3 15.44,7.28 0.49,0.34 0.95,0.69 1.39,1.05 3.33,2.78 5.01,5.98 1.94,9.18 z"
     id="path422"
     inkscape:connector-curvature="0"
     style="opacity:0.1" />
  <path
     d="m 193.16,351.21 a 27,27 0 0 1 -22.11,26.56 27.31,27.31 0 0 1 -4.9,0.44 h -0.12 c -0.29,0 -0.59,0 -0.88,0 a 27,27 0 1 1 28,-27 z"
     id="path424"
     inkscape:connector-curvature="0"
     style="fill:#ecb4b6" />
  <path
     d="m 169.69,417.97 c 0,0 13.6,7.67 10.12,1.2 l -17.75,-26.24 v 0 l 20.15,25.89 c 0,0 12.86,17.67 5.83,29.84 0,0 -1,10.12 0.17,12.52 1.17,2.4 -0.34,28 -0.34,28 0,0 -4.81,-4.46 -7.38,-3.61 -2.57,0.85 -20.71,2.37 -20.71,2.37 z"
     id="path426"
     inkscape:connector-curvature="0"
     style="opacity:0.1" />
  <path
     d="m 186.66,483.82 -0.25,4.74 c -1.63,-1.18 -3.9,-2.5 -5.41,-2 -2.57,0.86 -20.74,2.41 -20.74,2.41 l 0.83,-5.91 z"
     id="path428"
     inkscape:connector-curvature="0"
     style="opacity:0.1" />
  <path
     d="m 170.2,417.97 c 0,0 13.61,7.67 10.12,1.2 l -17.75,-26.24 v 0 l 20.15,25.89 c 0,0 12.86,17.67 5.83,29.84 0,0 -1,10.12 0.17,12.52 1.17,2.4 -0.34,28 -0.34,28 0,0 -4.8,-4.46 -7.37,-3.61 -2.57,0.85 -20.75,2.41 -20.75,2.41 z"
     id="path430"
     inkscape:connector-curvature="0"
     style="fill:#464353" />
  <path
     d="m 177.47,431.12 c -0.79,8.25 -4.18,18.06 -4.18,18.06 0,0 -2.4,24.35 -5.51,31.59 -3.11,7.24 -1.72,17.15 -3.43,35.5 -0.62,6.61 -2.75,11.15 -5.62,14.21 -4.72,5 -11.46,6.09 -16.78,5.78 l -1.26,-0.1 c -8.58,-0.85 -16.81,-42.18 -16.81,-42.18 0,0 -3.94,-35.16 -2.4,-40 1.54,-4.84 -1.52,-32.21 -2.55,-38.21 -0.66,-3.81 1.31,-10 2.83,-14.06 0.89,-2.34 1.62,-4 1.62,-4 0,0 2.92,-9.26 7.72,-14.06 a 7.08,7.08 0 0 1 5.09,-2.14 12.73,12.73 0 0 1 6.35,2 1.77,1.77 0 0 1 0.22,0.15 c 0,0 31.22,31.9 34.13,39.27 0.81,2.07 0.89,5.01 0.58,8.19 z"
     id="path432"
     inkscape:connector-curvature="0"
     style="opacity:0.1" />
  <path
     d="m 176.45,430.61 c -0.8,8.24 -4.19,18.05 -4.19,18.05 0,0 -2.4,24.36 -5.49,31.56 -3.09,7.2 -1.71,17.15 -3.43,35.5 -0.62,6.6 -2.75,11.14 -5.62,14.21 -4.72,5 -11.46,6.08 -16.78,5.78 l -1.26,-0.1 c -8.58,-0.86 -16.81,-42.19 -16.81,-42.19 0,0 -3.94,-35.15 -2.4,-39.95 1.54,-4.8 -1.54,-32.24 -2.57,-38.25 -0.66,-3.8 1.31,-10 2.83,-14.06 0.89,-2.34 1.62,-3.95 1.62,-3.95 0,0 2.92,-9.26 7.72,-14.06 a 7,7 0 0 1 5.09,-2.13 12.52,12.52 0 0 1 6.35,2 l 0.22,0.14 c 0,0 31.22,31.9 34.13,39.27 0.81,2.05 0.92,5 0.59,8.18 z"
     id="path434"
     inkscape:connector-curvature="0"
     style="fill:#ff748e" />
  <path
     d="m 141.48,556.15 c 0,0 -7.08,6.3 -9.52,6 -2.44,-0.3 9.52,-6 9.52,-6 z"
     id="path436"
     inkscape:connector-curvature="0"
     style="opacity:0.1" />
  <path
     d="m 143.36,562.2 c 0,0 -7.46,3.46 -9.69,4 -2.23,0.54 6.81,-4.89 9.69,-4 z"
     id="path438"
     inkscape:connector-curvature="0"
     style="opacity:0.1" />
  <path
     d="m 172.22,467.53 c 0,0 11.06,0.13 12.73,3.6 1.67,3.47 -9.17,-5.02 -12.73,-3.6 z"
     id="path440"
     inkscape:connector-curvature="0"
     style="opacity:0.1" />
  <path
     d="m 170.67,473.57 c 0,0 8.49,1.8 11.06,3.86 2.57,2.06 -11.06,-3.86 -11.06,-3.86 z"
     id="path442"
     inkscape:connector-curvature="0"
     style="opacity:0.1" />
  <path
     d="m 156.4,452.61 c 0,0 -1,34.85 -4.82,39.36 -3.82,4.51 4.82,-39.36 4.82,-39.36 z"
     id="path444"
     inkscape:connector-curvature="0"
     style="opacity:0.1" />
  <path
     d="m 146.88,551.13 c 0,0 -7.1,30.74 7.14,32.64 14.24,1.9 9.84,-35 9.84,-35 z"
     id="path446"
     inkscape:connector-curvature="0"
     style="opacity:0.1" />
  <path
     d="m 146.36,550.62 c 0,0 -7.06,30.74 7.15,32.66 14.21,1.92 9.83,-35 9.83,-35 z"
     id="path448"
     inkscape:connector-curvature="0"
     style="fill:#ecb4b6" />
  <path
     d="m 192.99,348.23 a 10.41,10.41 0 0 1 -1,-1.87 c -1.89,-3.94 -6.75,-2 -10.31,-0.13 l -1.9,2.45 a 15.25,15.25 0 0 0 -2.17,3.35 25.35,25.35 0 0 0 -0.91,3 c -0.49,1.74 -1.21,3.4 -1.86,5.1 a 59.29,59.29 0 0 0 -3.79,17.64 27.31,27.31 0 0 1 -4.9,0.44 h -0.12 v -0.12 c 0.18,-0.68 0.33,-1.37 0.47,-2.06 v 0 a 35.68,35.68 0 0 0 0.27,-11.8 c 0,-0.09 0,-0.17 0,-0.26 -0.13,-0.87 -0.3,-1.75 -0.37,-2.62 -0.33,0.6 -0.65,1.21 -1,1.83 -2.15,4 -4.41,8 -8.47,9.75 a 17.37,17.37 0 0 1 -5.15,1.16 29.38,29.38 0 0 0 -6.44,1.07 4,4 0 0 0 -1.87,1.13 5.52,5.52 0 0 0 -0.94,2.82 22.73,22.73 0 0 1 -1,3.91 34.28,34.28 0 0 1 -8.4,12.52 l -0.93,0.9 a 17.41,17.41 0 0 1 -5.56,3.85 17,17 0 0 1 -5.89,0.88 c 0.89,-2.34 1.62,-3.95 1.62,-3.95 0,0 2.92,-9.26 7.72,-14.06 a 7,7 0 0 1 5.09,-2.13 75.53,75.53 0 0 0 9.26,-13.77 27,27 0 1 1 48.57,-19 z"
     id="path450"
     inkscape:connector-curvature="0"
     style="opacity:0.1" />
  <path
     d="m 194.71,327.16 c -1.6,-1.78 -3.85,-2.82 -6,-3.85 a 4.57,4.57 0 0 1 -1.95,-1.42 5.94,5.94 0 0 1 -0.6,-2.45 c -0.75,-5.22 -5.61,-8.83 -10.44,-10.95 -6.22,-2.73 -13.69,-3.9 -19.66,-0.66 -2.9,1.58 -5.19,4.05 -7.81,6.06 -3.32,2.54 -7.14,4.32 -10.68,6.54 -3.54,2.22 -6.92,5 -8.6,8.86 -2.6,5.9 -0.65,12.67 -0.32,19.11 0.51,10.16 -3.62,20.77 -11.82,26.78 a 10.32,10.32 0 0 0 -2.6,2.27 2.85,2.85 0 0 0 -0.21,3.23 c 0.41,0.56 1.09,0.88 1.54,1.4 0.94,1.07 0.75,2.7 0.38,4.08 a 25.52,25.52 0 0 1 -6.86,11.73 c 0.14,1.06 1.42,1.47 2.47,1.63 a 56.1,56.1 0 0 0 8.39,0.61 14.1,14.1 0 0 0 11.73,-4.73 c 5,-4.7 9.23,-10.57 10.36,-17.33 a 5.71,5.71 0 0 1 0.94,-2.82 4.23,4.23 0 0 1 1.87,-1.13 c 3.73,-1.28 8,-0.65 11.59,-2.23 4.68,-2 7,-7 9.45,-11.58 0.08,0.87 0.24,1.75 0.38,2.63 a 35.56,35.56 0 0 1 -0.7,14.12 c -0.67,2.61 -1.64,5.21 -1.57,7.9 0.05,2 2.08,12.45 4.75,9.32 2.67,-3.13 1.69,-10.05 1.69,-13.93 a 59.55,59.55 0 0 1 3.93,-21.25 c 0.64,-1.69 1.37,-3.36 1.86,-5.1 a 27.33,27.33 0 0 1 0.9,-3 15.67,15.67 0 0 1 2.18,-3.35 l 1.91,-2.45 c 3.56,-1.89 8.42,-3.81 10.31,0.13 0.72,1.51 1.11,3.18 3,1.71 1.11,-0.87 1.47,-2.58 1.76,-3.88 1.19,-5.45 2.17,-11.86 -1.57,-16 z"
     id="path452"
     inkscape:connector-curvature="0"
     style="fill:#464353" />
  <path
     d="m 158.52,421.57 c -0.73,-18.47 -26.58,-22.29 -32.61,-4.82 a 2.53,2.53 0 0 0 -0.12,0.36 c -3.95,11.83 -2.23,41.79 -2.23,41.79 0,0 0.51,20.12 2.4,26.81 1.89,6.69 7.2,25.89 7.2,29 0,3.11 4.93,14.92 7,15.78 2.07,0.86 3.12,7.54 3.63,8.74 0.51,1.2 2,16.81 2,16.81 0,0 19.38,-1.2 19.72,-4.29 0.34,-3.09 -4.29,-18.18 -4.29,-18.18 0,0 -3.41,-6.17 -3.85,-11.14 -0.44,-4.97 -3.12,-7.23 -2.59,-10.66 0.53,-3.43 -1.55,-5.14 -1.55,-7.37 0,-2.23 -1.54,-8.23 -1.54,-8.23 0,0 -3.26,-2.58 -2.74,-5.66 0.52,-3.08 -4.63,-9.26 -3.26,-11.49 1.37,-2.23 1.71,-7.72 1.71,-7.72 0,0 1.72,-24.69 2.92,-31.38 1.2,-6.69 8.23,-17.49 8.23,-17.49 0,0 -0.01,-0.31 -0.03,-0.86 z"
     id="path454"
     inkscape:connector-curvature="0"
     style="opacity:0.1" />
  <path
     d="m 157.72,529.93 c -4.72,5 -11.46,6.08 -16.78,5.78 -0.62,-2.34 -1.52,-5.22 -2.83,-5.76 -2.08,-0.86 -7,-12.69 -7,-15.77 0,-3.08 -5.31,-22.3 -7.2,-29 -1.89,-6.7 -2.4,-26.8 -2.4,-26.8 0,0 -1.72,-30 2.23,-41.8 0,-0.11 0.07,-0.23 0.12,-0.35 6,-17.48 31.88,-13.65 32.61,4.82 0,0.55 0,0.85 0,0.85 0,0 -7,10.8 -8.23,17.49 -1.23,6.69 -2.9,31.38 -2.9,31.38 0,0 -0.35,5.49 -1.72,7.72 -1.37,2.23 3.77,8.41 3.26,11.49 -0.51,3.08 2.74,5.66 2.74,5.66 0,0 1.54,6 1.54,8.24 0,2.24 2.06,3.94 1.55,7.37 -0.51,3.43 2.23,5.66 2.67,10.63 a 27.72,27.72 0 0 0 2.34,8.05 z"
     id="path456"
     inkscape:connector-curvature="0"
     style="opacity:0.1" />
  <path
     d="m 157.49,421.06 c -0.73,-18.47 -26.58,-22.29 -32.61,-4.82 l -0.12,0.35 c -3.95,11.84 -2.23,41.8 -2.23,41.8 0,0 0.51,20.11 2.4,26.8 1.89,6.69 7.2,25.9 7.2,29 0,3.1 4.93,14.92 7,15.78 2.07,0.86 3.12,7.55 3.63,8.75 0.51,1.2 2,16.8 2,16.8 0,0 19.38,-1.2 19.72,-4.28 0.34,-3.08 -4.28,-18.18 -4.28,-18.18 0,0 -3.42,-6.18 -3.86,-11.15 -0.44,-4.97 -3.18,-7.2 -2.66,-10.63 0.52,-3.43 -1.55,-5.15 -1.55,-7.38 0,-2.23 -1.54,-8.23 -1.54,-8.23 0,0 -3.26,-2.57 -2.74,-5.66 0.52,-3.09 -4.63,-9.26 -3.26,-11.49 1.37,-2.23 1.71,-7.71 1.71,-7.71 0,0 1.72,-24.7 2.92,-31.39 1.2,-6.69 8.23,-17.49 8.23,-17.49 0,0 0.06,-0.32 0.04,-0.87 z"
     id="path458"
     inkscape:connector-curvature="0"
     style="fill:#ff748e" />
  <path
     d="m 125.66,468.56 c 0.51,-0.52 10.29,-11.32 13.37,-7.46 3.08,3.86 -13.37,7.46 -13.37,7.46 z"
     id="path460"
     inkscape:connector-curvature="0"
     style="opacity:0.1" />
  <path
     d="m 126.56,476.92 c 0.38,-0.39 9.77,-0.77 12.09,-6 2.32,-5.23 -12.09,6 -12.09,6 z"
     id="path462"
     inkscape:connector-curvature="0"
     style="opacity:0.1" />
  <g
     id="g474"
     style="opacity:0.1">
    <path
       d="m 208.08,440.31 a 2.65,2.65 0 0 1 0.51,0.93 4,4 0 0 0 -0.51,-3.5 c -0.46,-0.53 -1.13,-0.84 -1.55,-1.4 0,0 -0.05,-0.09 -0.08,-0.14 a 2.65,2.65 0 0 0 0.08,2.71 c 0.47,0.56 1.09,0.88 1.55,1.4 z"
       transform="translate(-92.22,-58.23)"
       id="path464"
       inkscape:connector-curvature="0" />
    <path
       d="m 221.17,407 c 0,-1 0,-2 0,-2.92 -0.18,-3.5 -0.83,-7.09 -1,-10.6 -0.21,4.3 0.75,8.81 1,13.17 0,0.1 -0.01,0.21 0,0.35 z"
       transform="translate(-92.22,-58.23)"
       id="path466"
       inkscape:connector-curvature="0" />
    <path
       d="m 261.25,449.94 c -2.38,2.79 -4.25,-5.24 -4.66,-8.41 a 13.19,13.19 0 0 0 -0.09,1.66 c 0.06,2 2.08,12.45 4.75,9.32 1.81,-2.12 2,-5.73 1.88,-9.06 -0.13,2.55 -0.53,4.91 -1.88,6.49 z"
       transform="translate(-92.22,-58.23)"
       id="path468"
       inkscape:connector-curvature="0" />
    <path
       d="m 258.77,421.17 a 34.41,34.41 0 0 1 0.37,4.06 35.14,35.14 0 0 0 -0.37,-6.64 c -0.13,-0.87 -0.3,-1.75 -0.38,-2.63 -2.47,4.62 -4.76,9.56 -9.44,11.59 -3.63,1.57 -7.86,0.95 -11.59,2.23 a 4,4 0 0 0 -1.87,1.13 5.58,5.58 0 0 0 -0.94,2.82 c -1.14,6.76 -5.38,12.63 -10.37,17.33 a 14.1,14.1 0 0 1 -11.73,4.73 57.32,57.32 0 0 1 -8.38,-0.61 6.33,6.33 0 0 1 -1.26,-0.33 c -0.39,0.44 -0.8,0.86 -1.22,1.27 0.14,1.06 1.43,1.47 2.48,1.63 a 56,56 0 0 0 8.38,0.61 14.1,14.1 0 0 0 11.73,-4.73 c 5,-4.7 9.23,-10.57 10.37,-17.33 a 5.61,5.61 0 0 1 0.94,-2.82 4.12,4.12 0 0 1 1.87,-1.13 c 3.73,-1.28 8,-0.65 11.59,-2.23 4.68,-2 7,-7 9.44,-11.58 0.08,0.87 0.25,1.75 0.38,2.63 z"
       transform="translate(-92.22,-58.23)"
       id="path470"
       inkscape:connector-curvature="0" />
    <path
       d="m 288.79,398.82 c -0.29,1.3 -0.66,3 -1.77,3.88 -1.88,1.46 -2.26,-0.2 -3,-1.71 -1.89,-3.94 -6.75,-2 -10.31,-0.13 l -1.91,2.45 a 15.25,15.25 0 0 0 -2.17,3.35 23.57,23.57 0 0 0 -0.9,3 c -0.5,1.74 -1.22,3.4 -1.87,5.09 A 59.85,59.85 0 0 0 262.94,436 c 0,0.33 0,0.69 0,1.06 a 59.7,59.7 0 0 1 3.91,-19.73 c 0.65,-1.69 1.37,-3.36 1.87,-5.1 a 23.57,23.57 0 0 1 0.9,-3 15.25,15.25 0 0 1 2.17,-3.35 l 1.91,-2.45 c 3.56,-1.89 8.42,-3.81 10.31,0.13 0.73,1.51 1.11,3.18 3,1.71 1.11,-0.87 1.48,-2.58 1.77,-3.88 a 33.91,33.91 0 0 0 1,-9.22 44.09,44.09 0 0 1 -0.99,6.65 z"
       transform="translate(-92.22,-58.23)"
       id="path472"
       inkscape:connector-curvature="0" />
  </g>
  <path
     d="m 219.96,437.95 0.53,0.36 a 2.12,2.12 0 0 1 -0.55,-3 l 23.84,-34.54 a 2.11,2.11 0 0 1 2.95,-0.54 l -0.53,-0.37 a 3.41,3.41 0 0 1 0.87,4.74 l -22.37,32.47 a 3.42,3.42 0 0 1 -4.74,0.88 z"
     id="path476"
     inkscape:connector-curvature="0"
     style="fill:#464353" />
  <path
     d="m 246.45594,399.99065 0.40353,0.27796 -26.24186,38.09662 -0.40353,-0.27797 a 1.74,1.74 0 0 1 -0.4459,-2.41999 l 24.2621,-35.22249 a 1.74,1.74 0 0 1 2.41999,-0.4459 z"
     id="path478"
     inkscape:connector-curvature="0"
     style="fill:#9f9eff" />
  <rect
     x="430.13211"
     y="195.55824"
     width="0.43000001"
     height="3.77"
     rx="0.17"
     ry="0.17"
     transform="rotate(34.56)"
     id="rect480"
     style="fill:#464353" />
  <path
     d="M 749.4,282 A 17.27,17.27 0 1 1 732.13,264.77 17.27,17.27 0 0 1 749.4,282 Z m -19.27,9.14 12.82,-12.81 a 1.12,1.12 0 0 0 0,-1.57 l -1.58,-1.58 a 1.1,1.1 0 0 0 -1.57,0 l -10.45,10.45 -4.88,-4.86 a 1.13,1.13 0 0 0 -1.58,0 l -1.57,1.58 a 1.1,1.1 0 0 0 0,1.57 l 7.24,7.24 a 1.1,1.1 0 0 0 1.57,0 z"
     id="path482"
     inkscape:connector-curvature="0"
     style="fill:#3acc6c" />
  <path
     d="m 540.19,471.54 a 17.27,17.27 0 1 1 -17.27,-17.27 17.27,17.27 0 0 1 17.27,17.27 z m -19.27,9.14 12.86,-12.81 a 1.11,1.11 0 0 0 0,-1.58 l -1.62,-1.52 a 1.11,1.11 0 0 0 -1.58,0 l -10.45,10.4 -4.88,-4.88 a 1.1,1.1 0 0 0 -1.57,0 l -1.58,1.57 a 1.13,1.13 0 0 0 0,1.58 l 7.24,7.24 a 1.11,1.11 0 0 0 1.58,0 z"
     id="path484"
     inkscape:connector-curvature="0"
     style="fill:#3acc6c" />
  <path
     d="m 540.19,660.2 a 17.27,17.27 0 1 1 -17.27,-17.27 17.27,17.27 0 0 1 17.27,17.27 z m -19.27,9.14 12.86,-12.81 a 1.11,1.11 0 0 0 0,-1.58 l -1.57,-1.57 a 1.11,1.11 0 0 0 -1.58,0 l -10.45,10.45 -4.88,-4.88 a 1.1,1.1 0 0 0 -1.57,0 l -1.58,1.57 a 1.13,1.13 0 0 0 0,1.58 l 7.24,7.24 a 1.11,1.11 0 0 0 1.58,0 z"
     id="path486"
     inkscape:connector-curvature="0"
     style="fill:#3acc6c" />
</svg>
